<?xml version="1.0" standalone="no"?>
<!DOCTYPE svg PUBLIC "-//W3C//DTD SVG 20010904//EN"
 "http://www.w3.org/TR/2001/REC-SVG-20010904/DTD/svg10.dtd">
<svg version="1.0" xmlns="http://www.w3.org/2000/svg"
 width="4500.000000pt" height="39178.000000pt" viewBox="0 0 4500.000000 39178.000000"
 preserveAspectRatio="xMidYMid meet">

<g transform="translate(0.000000,39178.000000) scale(0.100000,-0.100000)"
fill="#000000" stroke="none">
<path d="M0 373940 l0 -17840 40 0 40 0 0 -80 0 -80 80 0 80 0 0 -40 0 -40
120 0 120 0 0 -40 0 -40 80 0 80 0 0 40 0 40 40 0 40 0 0 -40 0 -40 120 0 120
0 0 -40 0 -40 120 0 120 0 0 -40 0 -40 160 0 160 0 0 -40 0 -40 120 0 120 0 0
-40 0 -40 80 0 80 0 0 -40 0 -40 320 0 320 0 0 -40 0 -40 80 0 80 0 0 -40 0
-40 120 0 c100 0 120 3 120 15 0 11 11 15 40 15 l40 0 0 -55 0 -55 120 0 120
0 0 -40 0 -40 200 0 200 0 0 -40 0 -40 160 0 160 0 0 -40 0 -40 160 0 160 0 0
-40 0 -40 160 0 160 0 0 -40 0 -40 160 0 160 0 0 -40 0 -40 120 0 120 0 0 -40
0 -40 40 0 40 0 0 40 0 40 40 0 40 0 0 -40 0 -40 120 0 120 0 0 -40 0 -40 160
0 160 0 0 -40 0 -40 120 0 c100 0 120 -2 120 -15 0 -11 11 -15 40 -15 36 0 40
-2 40 -25 l0 -25 120 0 120 0 0 -40 0 -40 80 0 80 0 0 40 0 40 40 0 c36 0 40
-2 40 -25 0 -25 1 -25 80 -25 64 0 80 -3 80 -15 0 -12 16 -15 80 -15 l80 0 0
-40 0 -40 160 0 160 0 0 -40 0 -40 120 0 120 0 0 -40 0 -40 120 0 120 0 0 -40
0 -40 200 0 200 0 0 -40 0 -40 80 0 80 0 0 -40 0 -40 160 0 160 0 0 -40 0 -40
40 0 c29 0 40 4 40 15 0 11 11 15 40 15 29 0 40 -4 40 -15 0 -12 16 -15 80
-15 79 0 80 0 80 -25 0 -22 4 -25 40 -25 29 0 40 -4 40 -15 0 -13 33 -15 240
-15 l240 0 0 -40 0 -40 160 0 160 0 0 -40 0 -40 200 0 200 0 0 -40 0 -40 120
0 120 0 0 -40 0 -40 160 0 160 0 0 -40 0 -40 80 0 c64 0 80 -3 80 -15 0 -11
11 -15 40 -15 29 0 40 4 40 15 0 11 11 15 40 15 l40 0 0 -40 0 -40 240 0 240
0 0 -40 0 -40 80 0 c64 0 80 -3 80 -15 0 -12 -16 -15 -80 -15 -79 0 -80 0 -80
-25 0 -25 -1 -25 -80 -25 -79 0 -80 0 -80 -25 0 -22 -4 -25 -40 -25 -29 0 -40
-4 -40 -15 0 -12 20 -15 120 -15 l120 0 0 -40 0 -40 160 0 160 0 0 -40 0 -40
160 0 160 0 0 -80 0 -80 160 0 160 0 0 -40 0 -40 80 0 80 0 0 40 0 40 80 0 80
0 0 -80 0 -80 80 0 80 0 0 40 0 40 120 0 c100 0 120 -2 120 -15 0 -11 11 -15
40 -15 36 0 40 -2 40 -25 l0 -25 160 0 160 0 0 25 c0 23 4 25 40 25 29 0 40 4
40 15 0 11 11 15 40 15 29 0 40 4 40 15 0 11 11 15 40 15 29 0 40 -4 40 -15 0
-11 11 -15 40 -15 29 0 40 4 40 15 0 11 11 15 40 15 29 0 40 -4 40 -15 0 -12
16 -15 80 -15 l80 0 0 -40 0 -40 120 0 c100 0 120 -2 120 -15 0 -11 11 -15 40
-15 36 0 40 -2 40 -25 l0 -25 120 0 120 0 0 -40 0 -40 200 0 200 0 0 -40 0
-40 240 0 240 0 0 -40 0 -40 120 0 120 0 0 -40 0 -40 40 0 40 0 0 -80 0 -80
40 0 40 0 0 -40 0 -40 120 0 120 0 0 -40 0 -40 40 0 c29 0 40 -4 40 -15 0 -11
11 -15 40 -15 29 0 40 4 40 15 0 13 20 15 120 15 l120 0 0 -40 0 -40 200 0
c171 0 200 2 200 15 0 11 11 15 40 15 29 0 40 -4 40 -15 0 -11 -11 -15 -40
-15 l-40 0 0 -40 0 -40 120 0 c100 0 120 3 120 15 0 11 11 15 40 15 29 0 40
-4 40 -15 0 -11 11 -15 40 -15 29 0 40 4 40 15 0 11 11 15 40 15 22 0 40 5 40
10 0 6 18 10 40 10 29 0 40 4 40 15 0 11 11 15 40 15 29 0 40 4 40 15 0 11 11
15 40 15 29 0 40 -4 40 -15 0 -11 -11 -15 -40 -15 l-40 0 0 -40 0 -40 200 0
200 0 0 -40 0 -40 80 0 c64 0 80 -3 80 -15 0 -12 16 -15 80 -15 79 0 80 0 80
-25 0 -25 1 -25 80 -25 64 0 80 3 80 15 0 11 11 15 40 15 29 0 40 -4 40 -15 0
-12 16 -15 80 -15 64 0 80 3 80 15 0 11 11 15 40 15 29 0 40 -4 40 -15 0 -11
-11 -15 -40 -15 -36 0 -40 -2 -40 -25 0 -22 4 -25 40 -25 29 0 40 -4 40 -15 0
-12 16 -15 80 -15 l80 0 0 -40 0 -40 160 0 160 0 0 -40 0 -40 240 0 240 0 0
-40 0 -40 120 0 120 0 0 -40 0 -40 160 0 160 0 0 -40 0 -40 120 0 120 0 0 -40
0 -40 80 0 c64 0 80 -3 80 -15 0 -11 11 -15 40 -15 29 0 40 4 40 15 0 12 16
15 80 15 l80 0 0 -40 c0 -29 4 -40 15 -40 11 0 15 -11 15 -40 0 -29 -4 -40
-15 -40 -11 0 -15 -11 -15 -40 l0 -40 120 0 120 0 0 -40 0 -40 120 0 c100 0
120 3 120 15 0 11 11 15 40 15 29 0 40 -4 40 -15 0 -11 -11 -15 -40 -15 l-40
0 0 -40 0 -40 240 0 240 0 0 -25 c0 -22 4 -25 40 -25 29 0 40 -4 40 -15 0 -12
20 -15 120 -15 l120 0 0 -40 0 -40 80 0 c64 0 80 -3 80 -15 0 -11 11 -15 40
-15 36 0 40 -2 40 -25 l0 -25 160 0 160 0 0 -40 0 -40 160 0 160 0 0 40 0 40
-40 0 -40 0 0 40 0 40 80 0 c64 0 80 -3 80 -15 0 -11 11 -15 40 -15 36 0 40
-2 40 -25 0 -25 1 -25 80 -25 64 0 80 -3 80 -15 0 -11 11 -15 40 -15 36 0 40
-2 40 -25 l0 -25 120 0 120 0 0 -40 0 -40 240 0 c207 0 240 2 240 15 0 11 11
15 40 15 29 0 40 -4 40 -15 0 -11 -11 -15 -40 -15 l-40 0 0 -40 0 -40 120 0
c100 0 120 3 120 15 0 11 11 15 40 15 29 0 40 -4 40 -15 0 -11 -11 -15 -40
-15 l-40 0 0 -40 0 -40 200 0 200 0 0 -40 0 -40 160 0 160 0 0 -40 0 -40 -80
0 -80 0 0 -40 0 -40 80 0 80 0 0 40 0 40 120 0 120 0 0 -40 0 -40 40 0 40 0 0
-40 0 -40 240 0 240 0 0 -80 0 -80 240 0 240 0 0 -25 c0 -22 4 -25 40 -25 l40
0 0 -55 0 -55 40 0 c39 0 40 -1 40 -36 0 -30 8 -45 44 -80 l43 -44 77 0 c61 0
76 -3 76 -15 0 -11 11 -15 40 -15 29 0 40 4 40 15 0 13 29 15 200 15 l200 0 0
-40 0 -40 40 0 40 0 0 -40 0 -40 40 0 40 0 0 80 0 80 80 0 c64 0 80 -3 80 -15
0 -11 11 -15 40 -15 36 0 40 -2 40 -25 l0 -25 120 0 120 0 0 -40 0 -40 200 0
200 0 0 -55 0 -55 40 0 c22 0 40 -4 40 -10 0 -5 18 -10 40 -10 29 0 40 -4 40
-15 0 -12 20 -15 120 -15 l120 0 0 -40 0 -40 120 0 120 0 0 40 0 40 120 0 120
0 0 -40 0 -40 40 0 40 0 0 -40 0 -40 80 0 c64 0 80 3 80 15 0 11 11 15 40 15
l40 0 0 -55 0 -55 160 0 160 0 0 -40 0 -40 40 0 c29 0 40 4 40 15 0 11 11 15
40 15 29 0 40 -4 40 -15 0 -11 11 -15 40 -15 l40 0 0 -40 0 -40 160 0 160 0 0
-25 c0 -22 4 -25 40 -25 29 0 40 -4 40 -15 0 -12 16 -15 80 -15 79 0 80 0 80
-25 0 -22 4 -25 40 -25 29 0 40 -4 40 -15 0 -12 20 -15 120 -15 l120 0 0 -40
0 -40 200 0 200 0 0 -40 0 -40 120 0 120 0 0 -40 0 -40 160 0 160 0 0 -40 0
-40 120 0 c100 0 120 3 120 15 0 11 11 15 40 15 29 0 40 -4 40 -15 0 -12 16
-15 80 -15 l80 0 0 -40 0 -40 40 0 c29 0 40 4 40 15 0 11 11 15 40 15 29 0 40
-4 40 -15 0 -12 16 -15 80 -15 79 0 80 0 80 -25 0 -22 4 -25 40 -25 29 0 40
-4 40 -15 0 -12 16 -15 80 -15 l80 0 0 -40 0 -40 -40 0 c-29 0 -40 -4 -40 -15
0 -11 11 -15 40 -15 29 0 40 4 40 15 0 13 20 15 120 15 l120 0 0 -40 0 -40
200 0 200 0 0 -40 0 -40 160 0 160 0 0 -40 0 -40 160 0 160 0 0 -40 0 -40 120
0 120 0 0 -40 0 -40 120 0 120 0 0 -40 0 -40 160 0 160 0 0 40 0 40 40 0 40 0
0 -80 0 -80 40 0 c29 0 40 -4 40 -15 0 -11 11 -15 40 -15 29 0 40 4 40 15 0
11 11 15 40 15 l40 0 0 -40 0 -40 40 0 c29 0 40 -4 40 -15 0 -12 16 -15 80
-15 64 0 80 3 80 15 0 11 11 15 40 15 l40 0 0 40 0 40 40 0 40 0 0 -80 0 -80
-40 0 c-29 0 -40 -4 -40 -15 0 -11 11 -15 40 -15 29 0 40 4 40 15 0 13 20 15
120 15 l120 0 0 -25 c0 -22 4 -25 40 -25 29 0 40 -4 40 -15 0 -11 11 -15 40
-15 l40 0 0 55 0 55 40 0 c29 0 40 -4 40 -15 0 -12 16 -15 80 -15 79 0 80 0
80 -25 0 -22 4 -25 40 -25 29 0 40 -4 40 -15 0 -12 -20 -15 -120 -15 l-120 0
0 -40 0 -40 120 0 120 0 0 -40 0 -40 80 0 80 0 0 65 0 65 40 0 c36 0 40 -2 40
-25 0 -22 4 -25 40 -25 29 0 40 -4 40 -15 0 -11 11 -15 40 -15 29 0 40 4 40
15 0 11 11 15 40 15 l40 0 0 -40 0 -40 40 0 c36 0 40 -2 40 -25 0 -25 1 -25
80 -25 64 0 80 -3 80 -15 0 -12 16 -15 80 -15 64 0 80 -3 80 -15 0 -11 11 -15
40 -15 36 0 40 -2 40 -25 0 -22 4 -25 40 -25 29 0 40 -4 40 -15 0 -12 16 -15
80 -15 79 0 80 0 80 -25 0 -25 1 -25 80 -25 79 0 80 0 80 -25 0 -22 4 -25 40
-25 29 0 40 -4 40 -15 0 -12 16 -15 80 -15 64 0 80 -3 80 -15 0 -11 11 -15 40
-15 29 0 40 4 40 15 0 12 16 15 80 15 64 0 80 3 80 15 0 11 11 15 40 15 l40 0
0 -55 0 -55 80 0 80 0 0 -55 0 -55 40 0 c29 0 40 4 40 15 0 13 24 15 160 15
l160 0 0 -40 0 -40 160 0 160 0 0 -40 0 -40 120 0 c100 0 120 3 120 15 0 11
11 15 40 15 l40 0 0 -55 0 -55 120 0 120 0 0 -40 0 -40 240 0 240 0 0 -25 c0
-22 4 -25 40 -25 29 0 40 -4 40 -15 0 -12 20 -15 120 -15 l120 0 0 -40 0 -40
160 0 160 0 0 -25 c0 -22 4 -25 40 -25 29 0 40 -4 40 -15 0 -13 24 -15 160
-15 l160 0 0 -25 c0 -22 4 -25 40 -25 29 0 40 -4 40 -15 0 -13 24 -15 160 -15
l160 0 0 -40 0 -40 40 0 c29 0 40 4 40 15 0 12 16 15 80 15 64 0 80 -3 80 -15
0 -13 47 -15 360 -15 l360 0 0 -40 0 -40 -40 0 c-29 0 -40 -4 -40 -15 0 -11
11 -15 40 -15 29 0 40 4 40 15 0 11 11 15 40 15 l40 0 0 40 0 40 120 0 120 0
0 -40 0 -40 40 0 40 0 0 40 0 40 120 0 120 0 0 40 0 40 80 0 80 0 0 -40 0 -40
40 0 40 0 0 40 0 40 40 0 40 0 0 -40 0 -40 80 0 80 0 0 40 0 40 80 0 c79 0 80
0 80 25 0 23 4 25 40 25 29 0 40 4 40 15 0 11 11 15 40 15 l40 0 0 40 0 40 80
0 80 0 0 40 0 40 80 0 80 0 0 40 0 40 80 0 80 0 0 -40 c0 -33 3 -40 20 -40 17
0 20 7 20 40 0 33 -3 40 -20 40 -17 0 -20 7 -20 40 0 33 3 40 20 40 20 0 20 7
20 22920 l0 22920 -22500 0 -22500 0 0 -17840z m320 -17905 c0 -11 -11 -15
-40 -15 -29 0 -40 4 -40 15 0 11 11 15 40 15 29 0 40 -4 40 -15z m12400 -3415
l0 -40 -40 0 -40 0 0 40 0 40 40 0 40 0 0 -40z m4320 -905 c0 -11 -11 -15 -40
-15 -29 0 -40 4 -40 15 0 11 11 15 40 15 29 0 40 -4 40 -15z m21440 -5280 c0
-11 -11 -15 -40 -15 -29 0 -40 4 -40 15 0 11 11 15 40 15 29 0 40 -4 40 -15z"/>
<path d="M7120 354085 c0 -11 11 -15 40 -15 29 0 40 4 40 15 0 11 -11 15 -40
15 -29 0 -40 -4 -40 -15z"/>
<path d="M11280 352860 l0 -40 40 0 40 0 0 40 0 40 -40 0 -40 0 0 -40z"/>
<path d="M11058 352823 c12 -2 32 -2 45 0 12 2 2 4 -23 4 -25 0 -35 -2 -22 -4z"/>
<path d="M13058 352253 c12 -2 32 -2 45 0 12 2 2 4 -23 4 -25 0 -35 -2 -22 -4z"/>
<path d="M16000 351765 c0 -11 11 -15 40 -15 29 0 40 4 40 15 0 11 -11 15 -40
15 -29 0 -40 -4 -40 -15z"/>
<path d="M30198 348333 c23 -2 42 -8 42 -14 0 -5 18 -9 40 -9 29 0 40 4 40 15
0 12 -15 15 -82 13 -46 -1 -64 -3 -40 -5z"/>
<path d="M30998 348093 c23 -2 61 -2 85 0 23 2 4 4 -43 4 -47 0 -66 -2 -42 -4z"/>
<path d="M31218 348013 c12 -2 32 -2 45 0 12 2 2 4 -23 4 -25 0 -35 -2 -22 -4z"/>
<path d="M31618 347933 c12 -2 32 -2 45 0 12 2 2 4 -23 4 -25 0 -35 -2 -22 -4z"/>
<path d="M32178 347773 c12 -2 32 -2 45 0 12 2 2 4 -23 4 -25 0 -35 -2 -22 -4z"/>
<path d="M32598 347693 c23 -2 61 -2 85 0 23 2 4 4 -43 4 -47 0 -66 -2 -42 -4z"/>
<path d="M32998 347613 c23 -2 61 -2 85 0 23 2 4 4 -43 4 -47 0 -66 -2 -42 -4z"/>
<path d="M33698 347453 c12 -2 32 -2 45 0 12 2 2 4 -23 4 -25 0 -35 -2 -22 -4z"/>
<path d="M34418 347213 c12 -2 32 -2 45 0 12 2 2 4 -23 4 -25 0 -35 -2 -22 -4z"/>
<path d="M35218 346973 c12 -2 32 -2 45 0 12 2 2 4 -23 4 -25 0 -35 -2 -22 -4z"/>
<path d="M35458 346893 c12 -2 32 -2 45 0 12 2 2 4 -23 4 -25 0 -35 -2 -22 -4z"/>
<path d="M36240 346805 c0 -11 11 -15 40 -15 29 0 40 4 40 15 0 11 -11 15 -40
15 -29 0 -40 -4 -40 -15z"/>
<path d="M36978 346573 c12 -2 32 -2 45 0 12 2 2 4 -23 4 -25 0 -35 -2 -22 -4z"/>
<path d="M4960 319710 c0 -6 47 -10 120 -10 73 0 120 4 120 10 0 6 -47 10
-120 10 -73 0 -120 -4 -120 -10z"/>
<path d="M1440 319630 c0 -5 18 -10 40 -10 l40 0 0 -40 0 -40 -40 0 c-22 0
-40 -4 -40 -10 0 -5 -18 -10 -40 -10 -22 0 -40 5 -40 10 0 6 -18 10 -40 10
-22 0 -40 -4 -40 -10 0 -5 -18 -10 -40 -10 -22 0 -40 5 -40 10 0 6 -47 10
-120 10 -73 0 -120 -4 -120 -10 0 -6 -47 -10 -120 -10 -73 0 -120 4 -120 10 0
6 -18 10 -40 10 l-40 0 0 -40 0 -40 -200 0 c-127 0 -200 -4 -200 -10 0 -5 -18
-10 -40 -10 -22 0 -40 5 -40 10 0 6 -33 10 -80 10 l-80 0 0 -23760 0 -23760
40 0 c36 0 40 -2 40 -25 0 -22 4 -25 40 -25 l40 0 0 -55 0 -55 80 0 80 0 0 40
0 40 80 0 80 0 0 -40 0 -40 80 0 c79 0 80 0 80 -25 0 -25 1 -25 80 -25 64 0
80 -3 80 -15 0 -12 20 -15 120 -15 l120 0 0 -40 0 -40 80 0 c64 0 80 -3 80
-15 0 -11 11 -15 40 -15 29 0 40 4 40 15 0 12 16 15 80 15 l80 0 0 -40 0 -40
160 0 160 0 0 -40 0 -40 120 0 c100 0 120 -2 120 -15 0 -11 11 -15 40 -15 29
0 40 4 40 15 0 11 11 15 40 15 l40 0 0 -40 0 -40 200 0 c171 0 200 2 200 15 0
12 16 15 80 15 64 0 80 -3 80 -15 0 -12 20 -15 120 -15 l120 0 0 -40 0 -40 80
0 c64 0 80 3 80 15 0 11 11 15 40 15 29 0 40 -4 40 -15 0 -12 16 -15 80 -15
79 0 80 0 80 -25 0 -22 4 -25 40 -25 29 0 40 -4 40 -15 0 -12 20 -15 120 -15
100 0 120 -2 120 -15 0 -11 11 -15 40 -15 36 0 40 -2 40 -25 0 -25 1 -25 80
-25 64 0 80 -3 80 -15 0 -11 11 -15 40 -15 29 0 40 4 40 15 0 12 16 15 80 15
l80 0 0 -40 0 -40 120 0 120 0 0 40 0 40 80 0 80 0 0 -80 0 -80 40 0 40 0 0
40 0 40 160 0 160 0 0 -40 0 -40 80 0 c64 0 80 3 80 15 0 11 11 15 40 15 29 0
40 -4 40 -15 0 -12 20 -15 120 -15 l120 0 0 -25 c0 -22 4 -25 40 -25 29 0 40
-4 40 -15 0 -12 20 -15 120 -15 l120 0 0 -40 0 -40 240 0 240 0 0 -40 0 -40
80 0 c64 0 80 -3 80 -15 0 -11 11 -15 40 -15 29 0 40 4 40 15 0 11 11 15 40
15 l40 0 0 -40 0 -40 80 0 c64 0 80 -3 80 -15 0 -11 11 -15 40 -15 29 0 40 4
40 15 0 13 20 15 120 15 l120 0 0 -40 0 -40 120 0 120 0 0 40 0 40 80 0 80 0
0 -40 0 -40 -40 0 -40 0 0 -40 0 -40 40 0 40 0 0 40 0 40 280 0 280 0 0 -40 0
-40 160 0 160 0 0 -40 0 -40 80 0 c64 0 80 -3 80 -15 0 -11 11 -15 40 -15 29
0 40 4 40 15 0 13 24 15 160 15 l160 0 0 -40 0 -40 120 0 120 0 0 40 0 40 120
0 120 0 0 -40 0 -40 -80 0 -80 0 0 -40 0 -40 80 0 80 0 0 40 0 40 200 0 200 0
0 -40 0 -40 240 0 240 0 0 -40 0 -40 280 0 280 0 0 -40 0 -40 160 0 160 0 0
-40 0 -40 160 0 160 0 0 -40 0 -40 40 0 40 0 0 40 0 40 80 0 80 0 0 -40 0 -40
160 0 160 0 0 -40 0 -40 120 0 120 0 0 40 0 40 -80 0 c-64 0 -80 3 -80 15 0
11 -11 15 -40 15 -36 0 -40 3 -40 25 l0 25 160 0 160 0 0 -40 0 -40 120 0 120
0 0 -40 0 -40 80 0 80 0 0 40 0 40 80 0 80 0 0 -40 0 -40 160 0 160 0 0 -40 0
-40 160 0 160 0 0 -40 0 -40 80 0 80 0 0 40 0 40 80 0 80 0 0 -40 0 -40 160 0
160 0 0 -40 0 -40 160 0 160 0 0 -40 0 -40 80 0 80 0 0 40 0 40 -80 0 c-79 0
-80 0 -80 25 0 23 -4 25 -40 25 -29 0 -40 4 -40 15 0 11 -11 15 -40 15 -29 0
-40 4 -40 15 0 11 -11 15 -40 15 -36 0 -40 3 -40 25 0 23 -4 25 -40 25 -29 0
-40 4 -40 15 0 11 -11 15 -40 15 -36 0 -40 3 -40 25 l0 25 120 0 120 0 0 -40
0 -40 120 0 120 0 0 -40 0 -40 160 0 160 0 0 -40 0 -40 120 0 120 0 0 40 0 40
80 0 80 0 0 -40 0 -40 160 0 160 0 0 -40 0 -40 160 0 160 0 0 -40 0 -40 80 0
80 0 0 40 0 40 160 0 160 0 0 -40 0 -40 160 0 160 0 0 -40 0 -40 120 0 120 0
0 -40 0 -40 80 0 80 0 0 40 0 40 -40 0 -40 0 0 40 0 40 80 0 80 0 0 -40 0 -40
120 0 120 0 0 -40 0 -40 160 0 160 0 0 -40 0 -40 160 0 160 0 0 -40 0 -40 80
0 80 0 0 40 0 40 -80 0 -80 0 0 40 0 40 -40 0 -40 0 0 40 0 40 -40 0 -40 0 0
40 0 40 160 0 160 0 0 -40 0 -40 160 0 160 0 0 -40 0 -40 160 0 160 0 0 -40 0
-40 120 0 120 0 0 40 0 40 -40 0 -40 0 0 40 0 40 120 0 120 0 0 -40 0 -40 160
0 160 0 0 -40 0 -40 120 0 120 0 0 -40 0 -40 160 0 160 0 0 -40 0 -40 80 0 80
0 0 80 0 80 -40 0 c-29 0 -40 4 -40 15 0 11 11 15 40 15 29 0 40 -4 40 -15 0
-13 24 -15 160 -15 l160 0 0 -40 0 -40 160 0 160 0 0 -40 0 -40 160 0 160 0 0
-40 0 -40 240 0 240 0 0 80 0 80 80 0 80 0 0 40 0 40 40 0 c29 0 40 4 40 15 0
11 11 15 40 15 36 0 40 3 40 25 0 23 4 25 40 25 29 0 40 4 40 15 0 13 20 15
120 15 100 0 120 -2 120 -15 0 -12 20 -15 120 -15 l120 0 0 -40 0 -40 160 0
160 0 0 -40 0 -40 160 0 160 0 0 -40 0 -40 160 0 160 0 0 -25 c0 -22 4 -25 40
-25 29 0 40 -4 40 -15 0 -11 11 -15 40 -15 l40 0 0 40 0 40 160 0 160 0 0 40
0 40 280 0 280 0 0 40 0 40 240 0 240 0 0 -40 0 -40 160 0 160 0 0 -40 0 -40
160 0 160 0 0 -40 0 -40 160 0 160 0 0 -40 0 -40 80 0 c64 0 80 -3 80 -15 0
-12 20 -15 120 -15 100 0 120 3 120 15 0 13 78 15 640 15 l640 0 0 40 0 40
6600 0 6600 0 0 160 0 160 120 0 120 0 0 -120 0 -120 80 0 80 0 0 -40 0 -40
40 0 40 0 0 160 0 160 160 0 160 0 0 -40 0 -40 40 0 40 0 0 -80 0 -80 80 0 80
0 0 120 0 120 80 0 80 0 0 40 0 40 40 0 40 0 0 40 0 40 80 0 80 0 0 80 0 80
40 0 40 0 0 -80 0 -80 80 0 80 0 0 80 0 80 40 0 40 0 0 -95 0 -95 40 0 40 0 0
175 0 175 40 0 40 0 0 40 0 40 40 0 40 0 0 -40 0 -40 40 0 40 0 0 80 0 80 40
0 40 0 0 -80 0 -80 40 0 40 0 0 120 0 120 40 0 40 0 0 40 0 40 40 0 40 0 0 80
0 80 40 0 40 0 0 -80 0 -80 40 0 40 0 0 80 0 80 40 0 40 0 0 120 0 120 40 0
40 0 0 80 0 80 80 0 80 0 0 40 0 40 40 0 40 0 0 120 0 120 80 0 80 0 0 80 0
80 40 0 40 0 0 160 0 160 40 0 40 0 0 40 0 40 40 0 40 0 0 40 0 40 40 0 40 0
0 160 0 160 80 0 80 0 0 120 c0 100 3 120 15 120 11 0 15 11 15 40 0 29 -4 40
-15 40 -11 0 -15 11 -15 40 l0 40 40 0 40 0 0 80 0 80 40 0 40 0 0 40 c0 29 4
40 15 40 11 0 15 11 15 40 0 29 -4 40 -15 40 -12 0 -15 16 -15 80 l0 80 40 0
40 0 0 40 0 40 40 0 40 0 0 40 c0 29 4 40 15 40 11 0 15 11 15 40 0 29 -4 40
-15 40 -12 0 -15 16 -15 80 l0 80 60 0 60 0 0 21500 0 21500 -60 0 c-33 0 -60
4 -60 10 0 6 -18 10 -40 10 -22 0 -40 5 -40 10 0 6 -18 10 -40 10 l-40 0 0 50
0 50 -40 0 c-22 0 -40 -4 -40 -10 0 -5 -18 -10 -40 -10 -22 0 -40 -4 -40 -10
0 -5 -18 -10 -40 -10 -22 0 -40 5 -40 10 0 6 -18 10 -40 10 -38 0 -40 2 -40
30 0 28 -2 30 -40 30 -33 0 -40 3 -40 20 0 17 -7 20 -40 20 -22 0 -40 5 -40
10 0 6 -18 10 -40 10 -33 0 -40 -3 -40 -20 0 -17 -7 -20 -40 -20 l-40 0 0 50
0 50 -120 0 c-73 0 -120 4 -120 10 0 6 -18 10 -40 10 -33 0 -40 -3 -40 -20 0
-17 -7 -20 -40 -20 -38 0 -40 2 -40 30 l0 30 -80 0 c-47 0 -80 4 -80 10 0 6
33 10 80 10 47 0 80 4 80 10 0 6 -33 10 -80 10 -47 0 -80 -4 -80 -10 0 -5 -18
-10 -40 -10 -38 0 -40 2 -40 30 l0 30 -80 0 c-47 0 -80 4 -80 10 0 6 18 10 40
10 22 0 40 5 40 10 0 6 -18 10 -40 10 -22 0 -40 -4 -40 -10 0 -5 -18 -10 -40
-10 -33 0 -40 3 -40 20 0 18 -7 20 -80 20 -47 0 -80 4 -80 10 0 6 -33 10 -80
10 -73 0 -80 2 -80 20 0 17 -7 20 -40 20 -22 0 -40 5 -40 10 0 6 -18 10 -40
10 -33 0 -40 -3 -40 -20 0 -17 -7 -20 -40 -20 l-40 0 0 40 0 40 -80 0 c-47 0
-80 4 -80 10 0 6 -47 10 -120 10 -73 0 -120 4 -120 10 0 6 -18 10 -40 10 -33
0 -40 -3 -40 -20 0 -19 7 -20 120 -20 73 0 120 -4 120 -10 0 -6 -47 -10 -120
-10 -73 0 -120 4 -120 10 0 6 -18 10 -40 10 -33 0 -40 3 -40 20 0 17 -7 20
-40 20 -33 0 -40 3 -40 20 0 17 -7 20 -40 20 -22 0 -40 5 -40 10 0 6 -18 10
-40 10 -22 0 -40 -4 -40 -10 0 -5 -18 -10 -40 -10 -22 0 -40 -4 -40 -10 0 -5
-18 -10 -40 -10 -22 0 -40 5 -40 10 0 6 -47 10 -120 10 -113 0 -120 1 -120 20
0 17 -7 20 -40 20 -22 0 -40 5 -40 10 0 6 -33 10 -80 10 -47 0 -80 4 -80 10 0
6 -18 10 -40 10 -33 0 -40 3 -40 20 0 18 -7 20 -80 20 -73 0 -80 2 -80 20 0
18 -7 20 -80 20 -47 0 -80 4 -80 10 0 6 -33 10 -80 10 -47 0 -80 4 -80 10 0 6
-18 10 -40 10 -33 0 -40 -3 -40 -20 0 -17 7 -20 40 -20 22 0 40 -4 40 -10 0
-5 -18 -10 -40 -10 -22 0 -40 5 -40 10 0 6 -47 10 -120 10 -113 0 -120 1 -120
20 0 17 -7 20 -40 20 -22 0 -40 5 -40 10 0 6 -47 10 -120 10 -113 0 -120 1
-120 20 0 17 -7 20 -40 20 -22 0 -40 -4 -40 -10 0 -6 -33 -10 -80 -10 -73 0
-80 2 -80 20 0 18 -7 20 -80 20 -47 0 -80 4 -80 10 0 6 -18 10 -40 10 -22 0
-40 5 -40 10 0 6 47 10 120 10 73 0 120 4 120 10 0 6 -47 10 -120 10 -73 0
-120 -4 -120 -10 0 -6 -33 -10 -80 -10 -47 0 -80 -4 -80 -10 0 -5 -18 -10 -40
-10 -38 0 -40 2 -40 30 l0 30 -80 0 c-73 0 -80 -2 -80 -20 0 -17 -7 -20 -40
-20 l-40 0 0 50 0 50 -80 0 c-47 0 -80 -4 -80 -10 0 -5 -18 -10 -40 -10 -33 0
-40 3 -40 20 0 17 -7 20 -40 20 -38 0 -40 -2 -40 -30 l0 -30 -80 0 c-47 0 -80
4 -80 10 0 6 18 10 40 10 33 0 40 3 40 20 0 17 -7 20 -40 20 -33 0 -40 3 -40
20 0 19 -7 20 -120 20 -73 0 -120 4 -120 10 0 6 -18 10 -40 10 -22 0 -40 -4
-40 -10 0 -6 -33 -10 -80 -10 -73 0 -80 2 -80 20 0 18 -7 20 -80 20 -73 0 -80
-2 -80 -20 0 -17 7 -20 40 -20 22 0 40 -4 40 -10 0 -5 -18 -10 -40 -10 -22 0
-40 5 -40 10 0 6 -33 10 -80 10 l-80 0 0 40 0 40 40 0 c22 0 40 5 40 10 0 6
-18 10 -40 10 -22 0 -40 -4 -40 -10 0 -5 -18 -10 -40 -10 -22 0 -40 5 -40 10
0 6 -18 10 -40 10 -22 0 -40 5 -40 10 0 6 -60 10 -160 10 -153 0 -160 -1 -160
-20 0 -17 -7 -20 -40 -20 l-40 0 0 40 0 40 -80 0 c-47 0 -80 4 -80 10 0 6 -18
10 -40 10 -22 0 -40 5 -40 10 0 6 -33 10 -80 10 -73 0 -80 -2 -80 -20 0 -19
-7 -20 -160 -20 -153 0 -160 1 -160 20 0 17 -7 20 -40 20 -22 0 -40 5 -40 10
0 6 -18 10 -40 10 -22 0 -40 5 -40 10 0 6 -18 10 -40 10 -33 0 -40 3 -40 20 0
18 -7 20 -80 20 l-80 0 0 -30 c0 -28 -2 -30 -40 -30 -22 0 -40 5 -40 10 0 6
-33 10 -80 10 l-80 0 0 40 0 40 40 0 c22 0 40 5 40 10 0 6 -18 10 -40 10 -22
0 -40 -4 -40 -10 0 -5 -18 -10 -40 -10 -22 0 -40 -4 -40 -10 0 -5 -18 -10 -40
-10 -22 0 -40 5 -40 10 0 6 -18 10 -40 10 -33 0 -40 3 -40 20 0 19 -7 20 -120
20 -113 0 -120 -1 -120 -20 0 -17 -7 -20 -40 -20 -38 0 -40 2 -40 30 0 28 -2
30 -40 30 -22 0 -40 5 -40 10 0 6 -18 10 -40 10 -22 0 -40 5 -40 10 0 6 -18
10 -40 10 -22 0 -40 -4 -40 -10 0 -5 -18 -10 -40 -10 -33 0 -40 3 -40 20 0 17
-7 20 -40 20 -33 0 -40 -3 -40 -20 0 -17 -7 -20 -40 -20 -33 0 -40 3 -40 20 0
17 -7 20 -40 20 -33 0 -40 -3 -40 -20 0 -17 -7 -20 -40 -20 l-40 0 0 50 0 50
-40 0 c-22 0 -40 -4 -40 -10 0 -5 -18 -10 -40 -10 -33 0 -40 3 -40 20 0 17 -7
20 -40 20 -33 0 -40 -3 -40 -20 0 -18 -7 -20 -80 -20 -73 0 -80 2 -80 20 0 17
-7 20 -40 20 -33 0 -40 -3 -40 -20 0 -17 -7 -20 -40 -20 -33 0 -40 3 -40 20 0
17 -7 20 -40 20 -22 0 -40 5 -40 10 0 6 -18 10 -40 10 -22 0 -40 5 -40 10 0 6
47 10 120 10 73 0 120 4 120 10 0 6 -47 10 -120 10 -73 0 -120 -4 -120 -10 0
-5 -18 -10 -40 -10 -22 0 -40 5 -40 10 0 6 -18 10 -40 10 -22 0 -40 -4 -40
-10 0 -5 -18 -10 -40 -10 -22 0 -40 -4 -40 -10 0 -5 -18 -10 -40 -10 -22 0
-40 5 -40 10 0 6 -18 10 -40 10 -33 0 -40 3 -40 20 0 18 -7 20 -80 20 -73 0
-80 -2 -80 -20 0 -17 -7 -20 -40 -20 l-40 0 0 40 0 40 -40 0 c-22 0 -40 -4
-40 -10 0 -5 -18 -10 -40 -10 -22 0 -40 5 -40 10 0 6 -33 10 -80 10 -73 0 -80
2 -80 20 0 18 -7 20 -80 20 -47 0 -80 4 -80 10 0 6 -33 10 -80 10 -47 0 -80 4
-80 10 0 6 -18 10 -40 10 -22 0 -40 -4 -40 -10 0 -6 -47 -10 -120 -10 -113 0
-120 1 -120 20 0 17 -7 20 -40 20 -22 0 -40 5 -40 10 0 6 -47 10 -120 10 -113
0 -120 1 -120 20 0 17 7 20 40 20 22 0 40 5 40 10 0 6 -18 10 -40 10 -22 0
-40 -4 -40 -10 0 -5 -18 -10 -40 -10 -22 0 -40 5 -40 10 0 6 -18 10 -40 10
-22 0 -40 -4 -40 -10 0 -6 -33 -10 -80 -10 -47 0 -80 4 -80 10 0 6 -18 10 -40
10 -22 0 -40 5 -40 10 0 6 -33 10 -80 10 -47 0 -80 4 -80 10 0 6 -33 10 -80
10 -47 0 -80 4 -80 10 0 6 18 10 40 10 22 0 40 5 40 10 0 6 -18 10 -40 10 -22
0 -40 -4 -40 -10 0 -5 -18 -10 -40 -10 -22 0 -40 -4 -40 -10 0 -5 -18 -10 -40
-10 -22 0 -40 5 -40 10 0 6 -18 10 -40 10 -22 0 -40 5 -40 10 0 6 -18 10 -40
10 -22 0 -40 5 -40 10 0 6 -18 10 -40 10 -33 0 -40 -3 -40 -20 0 -19 -7 -20
-120 -20 l-120 0 0 40 0 40 40 0 c22 0 40 5 40 10 0 6 -18 10 -40 10 -22 0
-40 -4 -40 -10 0 -6 -47 -10 -120 -10 -73 0 -120 4 -120 10 0 6 -18 10 -40 10
-22 0 -40 5 -40 10 0 6 -47 10 -120 10 -113 0 -120 -1 -120 -20 0 -17 7 -20
40 -20 22 0 40 -4 40 -10 0 -5 -18 -10 -40 -10 -22 0 -40 5 -40 10 0 6 -47 10
-120 10 l-120 0 0 30 c0 28 -2 30 -40 30 -33 0 -40 3 -40 20 0 17 -7 20 -40
20 -22 0 -40 -4 -40 -10 0 -5 -18 -10 -40 -10 -33 0 -40 3 -40 20 0 18 -7 20
-80 20 -73 0 -80 -2 -80 -20 0 -17 7 -20 40 -20 22 0 40 -4 40 -10 0 -5 -18
-10 -40 -10 -22 0 -40 5 -40 10 0 6 -47 10 -120 10 -113 0 -120 1 -120 20 0
17 -7 20 -40 20 -33 0 -40 -3 -40 -20 0 -17 -7 -20 -40 -20 l-40 0 0 40 0 40
-40 0 c-22 0 -40 5 -40 10 0 6 -18 10 -40 10 -22 0 -40 5 -40 10 0 6 -18 10
-40 10 -33 0 -40 -3 -40 -20 0 -18 7 -20 80 -20 47 0 80 -4 80 -10 0 -6 -33
-10 -80 -10 -47 0 -80 4 -80 10 0 6 -33 10 -80 10 -47 0 -80 -4 -80 -10 0 -5
-18 -10 -40 -10 -22 0 -40 5 -40 10 0 6 -33 10 -80 10 -73 0 -80 2 -80 20 0
18 -7 20 -80 20 -73 0 -80 -2 -80 -20 0 -17 -7 -20 -40 -20 l-40 0 0 40 0 40
-80 0 c-47 0 -80 -4 -80 -10 0 -5 -18 -10 -40 -10 -22 0 -40 5 -40 10 0 6 -33
10 -80 10 -73 0 -80 2 -80 20 0 18 -7 20 -80 20 -73 0 -80 -2 -80 -20 0 -17
-7 -20 -40 -20 l-40 0 0 40 0 40 -40 0 c-22 0 -40 5 -40 10 0 6 -33 10 -80 10
-47 0 -80 -4 -80 -10 0 -5 -18 -10 -40 -10 -33 0 -40 3 -40 20 0 19 -7 20
-120 20 -113 0 -120 -1 -120 -20 0 -18 -7 -20 -80 -20 -73 0 -80 2 -80 20 0
17 -7 20 -40 20 -33 0 -40 -3 -40 -20 0 -17 -7 -20 -40 -20 l-40 0 0 40 0 40
-40 0 c-22 0 -40 5 -40 10 0 6 -18 10 -40 10 -33 0 -40 -3 -40 -20 0 -17 -7
-20 -40 -20 -22 0 -40 5 -40 10 0 6 -33 10 -80 10 -73 0 -80 2 -80 20 0 18 -7
20 -80 20 -73 0 -80 -2 -80 -20 0 -17 -7 -20 -40 -20 -33 0 -40 3 -40 20 0 17
-7 20 -40 20 -22 0 -40 5 -40 10 0 6 -18 10 -40 10 -22 0 -40 5 -40 10 0 6 18
10 40 10 22 0 40 5 40 10 0 6 -18 10 -40 10 -22 0 -40 -4 -40 -10 0 -6 -33
-10 -80 -10 -47 0 -80 4 -80 10 0 6 -18 10 -40 10 -22 0 -40 5 -40 10 0 6 -18
10 -40 10 -33 0 -40 -3 -40 -20 0 -18 -7 -20 -80 -20 -73 0 -80 2 -80 20 0 18
-7 20 -80 20 -73 0 -80 -2 -80 -20 0 -17 -7 -20 -40 -20 l-40 0 0 40 0 40 -40
0 c-22 0 -40 5 -40 10 0 6 -18 10 -40 10 -22 0 -40 -4 -40 -10 0 -5 18 -10 40
-10 22 0 40 -4 40 -10 0 -6 -33 -10 -80 -10 -47 0 -80 4 -80 10 0 6 -18 10
-40 10 -22 0 -40 5 -40 10 0 6 -18 10 -40 10 -22 0 -40 5 -40 10 0 6 -33 10
-80 10 -73 0 -80 -2 -80 -20 0 -19 -7 -20 -120 -20 l-120 0 0 40 0 40 -80 0
c-47 0 -80 4 -80 10 0 6 -18 10 -40 10 -22 0 -40 -4 -40 -10 0 -5 18 -10 40
-10 l40 0 0 -40 0 -40 40 0 c22 0 40 -4 40 -10 0 -5 -18 -10 -40 -10 -22 0
-40 5 -40 10 0 6 -33 10 -80 10 l-80 0 0 40 0 40 -80 0 c-47 0 -80 4 -80 10 0
6 -18 10 -40 10 -22 0 -40 5 -40 10 0 6 -18 10 -40 10 -38 0 -40 -2 -40 -30
l0 -30 -80 0 c-47 0 -80 4 -80 10 0 6 -18 10 -40 10 -33 0 -40 3 -40 20 0 17
-7 20 -40 20 -38 0 -40 -2 -40 -30 0 -28 -2 -30 -40 -30 -22 0 -40 5 -40 10 0
6 -18 10 -40 10 -33 0 -40 3 -40 20 0 17 -7 20 -40 20 -33 0 -40 -3 -40 -20 0
-17 -7 -20 -40 -20 -33 0 -40 3 -40 20 0 17 -7 20 -40 20 -33 0 -40 3 -40 20
0 17 -7 20 -40 20 -22 0 -40 -4 -40 -10 0 -6 -47 -10 -120 -10 -73 0 -120 4
-120 10 0 6 -18 10 -40 10 -22 0 -40 5 -40 10 0 6 -18 10 -40 10 -22 0 -40 5
-40 10 0 6 -18 10 -40 10 -33 0 -40 -3 -40 -20 0 -18 -7 -20 -80 -20 -73 0
-80 2 -80 20 0 18 -7 20 -80 20 -73 0 -80 -2 -80 -20 0 -17 -7 -20 -40 -20
l-40 0 0 50 0 50 -40 0 c-22 0 -40 -4 -40 -10 0 -6 -47 -10 -120 -10 -73 0
-120 4 -120 10 0 6 -18 10 -40 10 -22 0 -40 5 -40 10 0 6 -18 10 -40 10 -33 0
-40 -3 -40 -20 0 -18 -7 -20 -80 -20 -73 0 -80 2 -80 20 0 17 -7 20 -40 20
-33 0 -40 -3 -40 -20 0 -17 -7 -20 -40 -20 -33 0 -40 3 -40 20 0 17 -7 20 -40
20 -33 0 -40 -3 -40 -20 0 -18 -7 -20 -80 -20 l-80 0 0 30 c0 28 -2 30 -40 30
-22 0 -40 5 -40 10 0 6 -18 10 -40 10 l-40 0 0 -40 0 -40 -120 0 -120 0 0 40
0 40 -160 0 c-100 0 -160 -4 -160 -10 0 -5 -18 -10 -40 -10 -22 0 -40 5 -40
10 0 6 -47 10 -120 10 -113 0 -120 1 -120 20 0 17 -7 20 -40 20 -33 0 -40 -3
-40 -20 0 -19 -7 -20 -160 -20 l-160 0 0 30 c0 28 -2 30 -40 30 -22 0 -40 5
-40 10 0 6 -33 10 -80 10 -47 0 -80 4 -80 10 0 6 -18 10 -40 10 -22 0 -40 -4
-40 -10 0 -6 -33 -10 -80 -10 -73 0 -80 2 -80 20 0 18 -7 20 -80 20 -73 0 -80
-2 -80 -20 0 -19 -7 -20 -200 -20 -193 0 -200 1 -200 20 0 17 -7 20 -40 20
-33 0 -40 -3 -40 -20 0 -18 -7 -20 -80 -20 l-80 0 0 40 0 40 -80 0 c-73 0 -80
2 -80 20 0 18 -7 20 -80 20 -73 0 -80 -2 -80 -20 0 -19 -7 -20 -120 -20 l-120
0 0 40 0 40 -40 0 c-22 0 -40 5 -40 10 0 6 -18 10 -40 10 -22 0 -40 -4 -40
-10 0 -5 18 -10 40 -10 l40 0 0 -40 0 -40 -200 0 -200 0 0 40 0 40 -80 0 -80
0 0 -40 0 -40 -160 0 -160 0 0 30 c0 28 -2 30 -40 30 -22 0 -40 5 -40 10 0 6
-18 10 -40 10 -33 0 -40 -3 -40 -20 0 -19 -7 -20 -120 -20 -113 0 -120 -1
-120 -20 0 -19 -7 -20 -120 -20 -113 0 -120 1 -120 20 0 17 -7 20 -40 20 -33
0 -40 -3 -40 -20 0 -19 -7 -20 -120 -20 l-120 0 0 40 0 40 -40 0 -40 0 0 -40
0 -40 -120 0 -120 0 0 40 0 40 -40 0 -40 0 0 -40 0 -40 -120 0 c-113 0 -120 1
-120 20 0 17 -7 20 -40 20 -22 0 -40 5 -40 10 0 6 -18 10 -40 10 -38 0 -40 2
-40 30 0 28 -2 30 -40 30 -33 0 -40 -3 -40 -20 0 -19 -7 -20 -120 -20 -113 0
-120 1 -120 20 0 17 -7 20 -40 20 -33 0 -40 -3 -40 -20 0 -19 -7 -20 -120 -20
l-120 0 0 40 0 40 -40 0 c-33 0 -40 3 -40 20 0 17 -7 20 -40 20 -33 0 -40 -3
-40 -20 0 -17 7 -20 40 -20 l40 0 0 -40 0 -40 -120 0 c-113 0 -120 1 -120 20
0 17 -7 20 -40 20 -33 0 -40 -3 -40 -20 0 -17 -7 -20 -40 -20 -33 0 -40 3 -40
20 0 17 -7 20 -40 20 -33 0 -40 -3 -40 -20 0 -19 -7 -20 -240 -20 -233 0 -240
1 -240 20 0 17 -7 20 -40 20 -33 0 -40 -3 -40 -20 0 -19 -7 -20 -160 -20 -153
0 -160 1 -160 20 0 17 -7 20 -40 20 -33 0 -40 -3 -40 -20 0 -19 -7 -20 -200
-20 -193 0 -200 1 -200 20 0 17 -7 20 -40 20 -33 0 -40 -3 -40 -20 0 -17 -7
-20 -40 -20 l-40 0 0 40 0 40 -80 0 -80 0 0 -40 0 -40 -40 0 c-33 0 -40 3 -40
20 0 17 -7 20 -40 20 -33 0 -40 -3 -40 -20 0 -17 -7 -20 -40 -20 l-40 0 0 40
0 40 -160 0 -160 0 0 -40 0 -40 -80 0 c-47 0 -80 -4 -80 -10 0 -5 -18 -10 -40
-10 -38 0 -40 2 -40 30 0 28 -2 30 -40 30 -33 0 -40 -3 -40 -20 0 -17 -7 -20
-40 -20 -33 0 -40 3 -40 20 0 17 -7 20 -40 20 -33 0 -40 -3 -40 -20 0 -17 -7
-20 -40 -20 l-40 0 0 40 0 40 -40 0 c-22 0 -40 -4 -40 -10 0 -5 -18 -10 -40
-10 -22 0 -40 -4 -40 -10 0 -5 -18 -10 -40 -10 -33 0 -40 -3 -40 -20 0 -19 -7
-20 -120 -20 l-120 0 0 40 0 40 -120 0 c-73 0 -120 4 -120 10 0 6 -18 10 -40
10 l-40 0 0 -50 0 -50 -80 0 -80 0 0 40 0 40 -80 0 c-47 0 -80 -4 -80 -10 0
-6 -47 -10 -120 -10 -73 0 -120 4 -120 10 0 6 -47 10 -120 10 -113 0 -120 1
-120 20 0 19 -7 20 -160 20 -153 0 -160 -1 -160 -20 0 -17 -7 -20 -40 -20
l-40 0 0 -40 0 -40 -80 0 c-73 0 -80 2 -80 20 0 19 -7 20 -160 20 -153 0 -160
-1 -160 -20 0 -17 -7 -20 -40 -20 l-40 0 0 40 0 40 -40 0 c-22 0 -40 5 -40 10
0 6 -60 10 -160 10 -100 0 -160 -4 -160 -10 0 -5 -18 -10 -40 -10 l-40 0 0
-40 0 -40 -120 0 c-113 0 -120 1 -120 20 0 17 -7 20 -40 20 -33 0 -40 -3 -40
-20 0 -20 -7 -20 -280 -20 l-280 0 0 50 0 50 -80 0 c-47 0 -80 -4 -80 -10 0
-6 -33 -10 -80 -10 -47 0 -80 -4 -80 -10 0 -5 -18 -10 -40 -10 -22 0 -40 5
-40 10 0 6 -18 10 -40 10 l-40 0 0 -40 0 -40 -120 0 -120 0 0 40 0 40 -40 0
c-38 0 -40 2 -40 30 l0 30 -80 0 c-47 0 -80 -4 -80 -10 0 -5 -18 -10 -40 -10
-33 0 -40 -3 -40 -20 0 -18 -7 -20 -80 -20 l-80 0 0 40 0 40 -240 0 -240 0 0
-40 0 -40 -200 0 c-127 0 -200 -4 -200 -10 0 -5 -18 -10 -40 -10 -22 0 -40 5
-40 10 0 6 -18 10 -40 10 -22 0 -40 -4 -40 -10 0 -6 -33 -10 -80 -10 -47 0
-80 4 -80 10 0 6 -47 10 -120 10 -73 0 -120 -4 -120 -10 0 -5 -18 -10 -40 -10
-22 0 -40 5 -40 10 0 6 -127 10 -360 10 -353 0 -360 0 -360 20 0 17 -7 20 -40
20 -33 0 -40 -3 -40 -20 0 -19 -7 -20 -120 -20 l-120 0 0 40 0 40 -80 0 c-47
0 -80 4 -80 10 0 6 -33 10 -80 10 -47 0 -80 -4 -80 -10 0 -6 -33 -10 -80 -10
l-80 0 0 -40 0 -40 80 0 c47 0 80 -4 80 -10 0 -6 -47 -10 -120 -10 -73 0 -120
4 -120 10 0 6 -47 10 -120 10 -113 0 -120 1 -120 20 0 19 -7 20 -120 20 -73 0
-120 4 -120 10 0 6 -33 10 -80 10 -47 0 -80 4 -80 10 0 6 -18 10 -40 10 -22 0
-40 5 -40 10 0 6 -100 10 -280 10 -180 0 -280 -4 -280 -10z m1760 -100 c0 -5
-18 -10 -40 -10 -22 0 -40 5 -40 10 0 6 18 10 40 10 22 0 40 -4 40 -10z m2480
0 c0 -5 -18 -10 -40 -10 -22 0 -40 5 -40 10 0 6 18 10 40 10 22 0 40 -4 40
-10z m-400 -80 c0 -5 -18 -10 -40 -10 -22 0 -40 5 -40 10 0 6 18 10 40 10 22
0 40 -4 40 -10z m4000 0 c0 -6 -33 -10 -80 -10 -47 0 -80 4 -80 10 0 6 33 10
80 10 47 0 80 -4 80 -10z m7200 -80 c0 -5 -18 -10 -40 -10 -22 0 -40 5 -40 10
0 6 18 10 40 10 22 0 40 -4 40 -10z m2800 -80 c0 -5 -18 -10 -40 -10 -22 0
-40 5 -40 10 0 6 18 10 40 10 22 0 40 -4 40 -10z m7840 -640 c0 -5 -18 -10
-40 -10 -22 0 -40 5 -40 10 0 6 18 10 40 10 22 0 40 -4 40 -10z m320 0 c0 -6
-33 -10 -80 -10 -47 0 -80 4 -80 10 0 6 33 10 80 10 47 0 80 -4 80 -10z m4240
-480 c0 -5 -18 -10 -40 -10 -22 0 -40 5 -40 10 0 6 18 10 40 10 22 0 40 -4 40
-10z m2160 -240 c0 -5 -18 -10 -40 -10 -22 0 -40 5 -40 10 0 6 18 10 40 10 22
0 40 -4 40 -10z m1280 -160 c0 -5 -18 -10 -40 -10 -22 0 -40 5 -40 10 0 6 18
10 40 10 22 0 40 -4 40 -10z m2560 -320 c0 -6 -33 -10 -80 -10 -47 0 -80 4
-80 10 0 6 33 10 80 10 47 0 80 -4 80 -10z m640 -80 c0 -5 -18 -10 -40 -10
-22 0 -40 5 -40 10 0 6 18 10 40 10 22 0 40 -4 40 -10z m5680 -880 c0 -6 -33
-10 -80 -10 -47 0 -80 4 -80 10 0 6 33 10 80 10 47 0 80 -4 80 -10z m-41600
-45015 c0 -11 -11 -15 -40 -15 -29 0 -40 4 -40 15 0 11 11 15 40 15 29 0 40
-4 40 -15z m1680 -240 c0 -11 -11 -15 -40 -15 -29 0 -40 4 -40 15 0 11 11 15
40 15 29 0 40 -4 40 -15z m39710 -215 c0 -29 -4 -40 -15 -40 -11 0 -15 11 -15
40 0 29 4 40 15 40 11 0 15 -11 15 -40z m-36590 -320 l0 -40 -80 0 -80 0 0 40
0 40 80 0 80 0 0 -40z m4800 -640 l0 -40 -80 0 -80 0 0 40 0 40 80 0 80 0 0
-40z m5920 -560 l0 -40 -40 0 -40 0 0 40 0 40 40 0 40 0 0 -40z"/>
<path d="M8560 319630 c0 -6 47 -10 120 -10 73 0 120 4 120 10 0 6 -47 10
-120 10 -73 0 -120 -4 -120 -10z"/>
<path d="M9680 319630 c0 -5 18 -10 40 -10 22 0 40 5 40 10 0 6 -18 10 -40 10
-22 0 -40 -4 -40 -10z"/>
<path d="M13600 319630 c0 -5 18 -10 40 -10 22 0 40 5 40 10 0 6 -18 10 -40
10 -22 0 -40 -4 -40 -10z"/>
<path d="M720 319560 c0 -19 7 -20 120 -20 113 0 120 1 120 20 0 19 -7 20
-120 20 -113 0 -120 -1 -120 -20z"/>
<path d="M0 319550 c0 -5 18 -10 40 -10 22 0 40 5 40 10 0 6 -18 10 -40 10
-22 0 -40 -4 -40 -10z"/>
<path d="M14800 319550 c0 -5 18 -10 40 -10 22 0 40 5 40 10 0 6 -18 10 -40
10 -22 0 -40 -4 -40 -10z"/>
<path d="M15840 319470 c0 -5 18 -10 40 -10 22 0 40 5 40 10 0 6 -18 10 -40
10 -22 0 -40 -4 -40 -10z"/>
<path d="M18400 319390 c0 -5 18 -10 40 -10 22 0 40 5 40 10 0 6 -18 10 -40
10 -22 0 -40 -4 -40 -10z"/>
<path d="M18640 319390 c0 -5 18 -10 40 -10 22 0 40 5 40 10 0 6 -18 10 -40
10 -22 0 -40 -4 -40 -10z"/>
<path d="M20960 319230 c0 -5 18 -10 40 -10 22 0 40 5 40 10 0 6 -18 10 -40
10 -22 0 -40 -4 -40 -10z"/>
<path d="M23120 319070 c0 -6 33 -10 80 -10 47 0 80 4 80 10 0 6 -33 10 -80
10 -47 0 -80 -4 -80 -10z"/>
<path d="M27680 318670 c0 -5 18 -10 40 -10 22 0 40 5 40 10 0 6 -18 10 -40
10 -22 0 -40 -4 -40 -10z"/>
<path d="M28320 318590 c0 -5 18 -10 40 -10 22 0 40 5 40 10 0 6 -18 10 -40
10 -22 0 -40 -4 -40 -10z"/>
<path d="M36480 317630 c0 -5 18 -10 40 -10 22 0 40 5 40 10 0 6 -18 10 -40
10 -22 0 -40 -4 -40 -10z"/>
<path d="M40160 317150 c0 -6 33 -10 80 -10 47 0 80 4 80 10 0 6 -33 10 -80
10 -47 0 -80 -4 -80 -10z"/>
<path d="M41680 316920 c0 -17 7 -20 40 -20 33 0 40 3 40 20 0 17 -7 20 -40
20 -33 0 -40 -3 -40 -20z"/>
<path d="M0 271845 c0 -11 11 -15 40 -15 29 0 40 4 40 15 0 11 -11 15 -40 15
-29 0 -40 -4 -40 -15z"/>
<path d="M2560 271340 l0 -40 40 0 40 0 0 40 0 40 -40 0 -40 0 0 -40z"/>
<path d="M2800 271285 c0 -11 11 -15 40 -15 29 0 40 4 40 15 0 11 -11 15 -40
15 -29 0 -40 -4 -40 -15z"/>
<path d="M3040 271205 c0 -11 11 -15 40 -15 29 0 40 4 40 15 0 11 -11 15 -40
15 -29 0 -40 -4 -40 -15z"/>
<path d="M4720 270965 c0 -11 11 -15 40 -15 29 0 40 4 40 15 0 11 -11 15 -40
15 -29 0 -40 -4 -40 -15z"/>
<path d="M7520 270485 c0 -11 11 -15 40 -15 29 0 40 4 40 15 0 11 -11 15 -40
15 -29 0 -40 -4 -40 -15z"/>
<path d="M12320 269820 l0 -40 40 0 40 0 0 40 0 40 -40 0 -40 0 0 -40z"/>
<path d="M960 216595 c0 -11 -11 -15 -40 -15 -29 0 -40 -4 -40 -15 0 -11 -11
-15 -40 -15 -29 0 -40 4 -40 15 0 13 -51 15 -400 15 l-400 0 0 -13440 0
-13440 80 0 80 0 0 -40 0 -40 80 0 c64 0 80 3 80 15 0 11 11 15 40 15 29 0 40
-4 40 -15 0 -11 -11 -15 -40 -15 l-40 0 0 -40 0 -40 80 0 80 0 0 -40 0 -40
120 0 120 0 0 -40 0 -40 -40 0 c-29 0 -40 -4 -40 -15 0 -11 11 -15 40 -15 29
0 40 4 40 15 0 13 20 15 120 15 l120 0 0 -40 0 -40 120 0 120 0 0 -40 0 -40
40 0 c29 0 40 -4 40 -15 0 -11 11 -15 40 -15 36 0 40 -2 40 -25 0 -25 1 -25
80 -25 l80 0 0 40 0 40 40 0 40 0 0 -40 0 -40 40 0 c29 0 40 4 40 15 0 11 11
15 40 15 29 0 40 -4 40 -15 0 -12 16 -15 80 -15 79 0 80 0 80 -25 0 -22 4 -25
40 -25 29 0 40 -4 40 -15 0 -11 -11 -15 -40 -15 l-40 0 0 -40 0 -40 80 0 80 0
0 40 0 40 160 0 160 0 0 -40 0 -40 80 0 c79 0 80 0 80 -25 0 -22 4 -25 40 -25
29 0 40 -4 40 -15 0 -12 20 -15 120 -15 l120 0 0 -40 0 -40 80 0 c64 0 80 -3
80 -15 0 -11 11 -15 40 -15 29 0 40 4 40 15 0 12 16 15 80 15 l80 0 0 -40 0
-40 200 0 200 0 0 -40 0 -40 80 0 c64 0 80 -3 80 -15 0 -11 11 -15 40 -15 29
0 40 4 40 15 0 12 16 15 80 15 l80 0 0 -40 0 -40 120 0 120 0 0 40 0 40 80 0
80 0 0 -40 0 -40 120 0 c100 0 120 3 120 15 0 11 11 15 40 15 l40 0 0 -55 0
-55 240 0 240 0 0 -40 0 -40 80 0 c64 0 80 -3 80 -15 0 -11 11 -15 40 -15 29
0 40 4 40 15 0 11 11 15 40 15 l40 0 0 -40 0 -40 80 0 c64 0 80 -3 80 -15 0
-11 11 -15 40 -15 29 0 40 4 40 15 0 13 20 15 120 15 l120 0 0 -40 0 -40 80 0
c64 0 80 -3 80 -15 0 -11 11 -15 40 -15 29 0 40 4 40 15 0 11 -11 15 -40 15
l-40 0 0 40 0 40 120 0 120 0 0 -40 0 -40 120 0 c100 0 120 3 120 15 0 11 11
15 40 15 l40 0 0 -55 0 -55 80 0 c64 0 80 3 80 15 0 12 16 15 80 15 64 0 80
-3 80 -15 0 -12 16 -15 80 -15 l80 0 0 -40 0 -40 80 0 c64 0 80 -3 80 -15 0
-11 11 -15 40 -15 29 0 40 4 40 15 0 12 16 15 80 15 l80 0 0 -40 0 -40 40 0
c29 0 40 -4 40 -15 0 -11 11 -15 40 -15 29 0 40 4 40 15 0 13 20 15 120 15
l120 0 0 -40 0 -40 80 0 c64 0 80 -3 80 -15 0 -11 11 -15 40 -15 29 0 40 4 40
15 0 12 16 15 80 15 l80 0 0 -40 0 -40 40 0 c29 0 40 -4 40 -15 0 -11 11 -15
40 -15 29 0 40 4 40 15 0 13 20 15 120 15 l120 0 0 -40 0 -40 120 0 c100 0
120 -2 120 -15 0 -11 11 -15 40 -15 29 0 40 4 40 15 0 11 -11 15 -40 15 -36 0
-40 3 -40 25 0 23 -4 25 -40 25 -29 0 -40 4 -40 15 0 12 -16 15 -80 15 -79 0
-80 0 -80 25 0 23 -4 25 -40 25 -38 0 -40 2 -40 30 0 28 2 30 40 30 29 0 40
-4 40 -15 0 -11 11 -15 40 -15 29 0 40 -4 40 -15 0 -11 11 -15 40 -15 22 0 40
-4 40 -10 0 -5 18 -10 40 -10 29 0 40 -4 40 -15 0 -12 20 -15 120 -15 l120 0
0 -40 0 -40 120 0 c100 0 120 3 120 15 0 11 11 15 40 15 29 0 40 -4 40 -15 0
-12 16 -15 80 -15 l80 0 0 -40 0 -40 40 0 c29 0 40 4 40 15 0 11 11 15 40 15
29 0 40 -4 40 -15 0 -12 16 -15 80 -15 l80 0 0 -40 0 -40 80 0 c64 0 80 -3 80
-15 0 -11 11 -15 40 -15 29 0 40 4 40 15 0 13 24 15 160 15 l160 0 0 -40 0
-40 120 0 120 0 0 40 0 40 120 0 120 0 0 -40 0 -40 -80 0 -80 0 0 -40 0 -40
80 0 80 0 0 40 0 40 280 0 280 0 0 -40 0 -40 160 0 160 0 0 -40 0 -40 280 0
280 0 0 -40 0 -40 160 0 160 0 0 -40 0 -40 280 0 280 0 0 -40 0 -40 160 0 160
0 0 -40 0 -40 120 0 120 0 0 40 0 40 -120 0 -120 0 0 40 0 40 160 0 160 0 0
-40 0 -40 160 0 160 0 0 -40 0 -40 40 0 40 0 0 40 0 40 120 0 120 0 0 -40 0
-40 120 0 120 0 0 -40 0 -40 160 0 160 0 0 -40 0 -40 80 0 80 0 0 40 0 40 120
0 120 0 0 -40 0 -40 120 0 120 0 0 -40 0 -40 160 0 c136 0 160 2 160 15 0 11
-11 15 -40 15 -36 0 -40 3 -40 25 0 25 -1 25 -80 25 l-80 0 0 40 0 40 -80 0
-80 0 0 40 0 40 120 0 120 0 0 -40 0 -40 160 0 160 0 0 -40 0 -40 160 0 160 0
0 -40 0 -40 80 0 c64 0 80 3 80 15 0 11 -11 15 -40 15 -36 0 -40 3 -40 25 l0
25 160 0 160 0 0 -40 0 -40 160 0 c136 0 160 2 160 15 0 11 11 15 40 15 29 0
40 -4 40 -15 0 -11 -11 -15 -40 -15 l-40 0 0 -40 0 -40 120 0 120 0 0 -40 0
-40 80 0 80 0 0 40 0 40 160 0 160 0 0 -40 0 -40 120 0 c100 0 120 -2 120 -15
0 -11 11 -15 40 -15 36 0 40 -2 40 -25 l0 -25 120 0 120 0 0 40 0 40 120 0
120 0 0 -40 0 -40 160 0 160 0 0 -40 0 -40 120 0 120 0 0 -40 0 -40 160 0 160
0 0 40 0 40 -40 0 -40 0 0 40 0 40 -80 0 -80 0 0 40 0 40 -40 0 -40 0 0 40 0
40 120 0 120 0 0 -40 0 -40 160 0 160 0 0 -40 0 -40 120 0 120 0 0 -40 0 -40
160 0 160 0 0 -40 0 -40 80 0 80 0 0 40 0 40 -40 0 -40 0 0 40 0 40 160 0 160
0 0 -40 0 -40 160 0 160 0 0 -40 0 -40 160 0 160 0 0 -40 0 -40 160 0 160 0 0
80 0 80 80 0 80 0 0 -40 0 -40 120 0 120 0 0 -40 0 -40 160 0 160 0 0 -40 0
-40 160 0 160 0 0 -40 0 -40 160 0 c136 0 160 -2 160 -15 0 -11 11 -15 40 -15
l40 0 0 55 0 55 40 0 40 0 0 40 0 40 40 0 40 0 0 40 0 40 40 0 c36 0 40 3 40
25 0 23 4 25 40 25 29 0 40 4 40 15 0 12 16 15 80 15 l80 0 0 40 0 40 80 0 80
0 0 -40 0 -40 160 0 160 0 0 -40 0 -40 160 0 160 0 0 -40 0 -40 160 0 160 0 0
-40 0 -40 120 0 c100 0 120 -2 120 -15 0 -12 16 -15 80 -15 64 0 80 3 80 15 0
13 20 15 120 15 l120 0 0 40 0 40 280 0 280 0 0 40 0 40 360 0 360 0 0 -40 0
-40 120 0 120 0 0 -40 0 -40 160 0 160 0 0 -40 0 -40 160 0 160 0 0 -40 0 -40
160 0 c136 0 160 -2 160 -15 0 -11 11 -15 40 -15 29 0 40 4 40 15 0 13 42 15
320 15 l320 0 0 40 0 40 6880 0 6880 0 0 175 0 175 40 0 c29 0 40 -4 40 -15 0
-11 11 -15 40 -15 29 0 40 4 40 15 0 11 11 15 40 15 l40 0 0 -135 0 -135 80 0
80 0 0 -40 0 -40 40 0 40 0 0 160 0 160 40 0 40 0 0 40 0 40 120 0 120 0 0
-40 0 -40 40 0 40 0 0 -120 0 -120 80 0 80 0 0 120 0 120 120 0 120 0 0 80 0
80 80 0 80 0 0 120 0 120 40 0 40 0 0 -120 0 -120 80 0 80 0 0 80 0 80 40 0
40 0 0 -80 0 -80 40 0 40 0 0 160 0 160 40 0 40 0 0 40 0 40 40 0 40 0 0 -40
0 -40 40 0 40 0 0 160 0 160 40 0 40 0 0 -120 0 -120 40 0 40 0 0 120 c0 113
1 120 20 120 20 0 20 7 20 10960 l0 10960 -60 0 c-57 0 -60 1 -60 25 0 25 -1
25 -80 25 -64 0 -80 3 -80 15 0 11 -11 15 -40 15 -36 0 -40 3 -40 25 l0 25
-120 0 c-100 0 -120 3 -120 15 0 11 -11 15 -40 15 l-40 0 0 40 0 40 -40 0
c-29 0 -40 -4 -40 -15 0 -12 -16 -15 -80 -15 -64 0 -80 3 -80 15 0 12 -16 15
-80 15 -79 0 -80 0 -80 25 0 23 -4 25 -40 25 -29 0 -40 4 -40 15 0 11 -11 15
-40 15 -29 0 -40 -4 -40 -15 0 -11 -11 -15 -40 -15 -29 0 -40 4 -40 15 0 12
-16 15 -80 15 l-80 0 0 40 0 40 -40 0 c-29 0 -40 -4 -40 -15 0 -12 -16 -15
-80 -15 -64 0 -80 3 -80 15 0 13 -24 15 -160 15 l-160 0 0 40 0 40 -40 0 c-29
0 -40 -4 -40 -15 0 -11 -11 -15 -40 -15 -29 0 -40 4 -40 15 0 12 -16 15 -80
15 -79 0 -80 0 -80 25 l0 25 -120 0 c-100 0 -120 3 -120 15 0 13 -20 15 -120
15 l-120 0 0 25 0 25 -120 0 c-100 0 -120 3 -120 15 0 13 -20 15 -120 15
l-120 0 0 40 0 40 -40 0 c-29 0 -40 -4 -40 -15 0 -12 -16 -15 -80 -15 -64 0
-80 3 -80 15 0 13 -20 15 -120 15 l-120 0 0 40 0 40 -40 0 c-29 0 -40 -4 -40
-15 0 -12 -16 -15 -80 -15 -64 0 -80 3 -80 15 0 11 11 15 40 15 29 0 40 4 40
15 0 11 -11 15 -40 15 -29 0 -40 -4 -40 -15 0 -12 -20 -15 -120 -15 l-120 0 0
40 0 40 -40 0 c-29 0 -40 -4 -40 -15 0 -12 -16 -15 -80 -15 -64 0 -80 3 -80
15 0 11 11 15 40 15 29 0 40 4 40 15 0 11 -11 15 -40 15 -29 0 -40 -4 -40 -15
0 -12 -20 -15 -120 -15 l-120 0 0 40 0 40 -40 0 c-29 0 -40 -4 -40 -15 0 -12
-16 -15 -80 -15 -64 0 -80 3 -80 15 0 11 11 15 40 15 29 0 40 4 40 15 0 12
-16 15 -80 15 -64 0 -80 -3 -80 -15 0 -12 -16 -15 -80 -15 l-80 0 0 40 0 40
-40 0 c-29 0 -40 -4 -40 -15 0 -12 -16 -15 -80 -15 -64 0 -80 3 -80 15 0 11
11 15 40 15 29 0 40 4 40 15 0 12 -16 15 -80 15 -64 0 -80 -3 -80 -15 0 -11
-11 -15 -40 -15 l-40 0 0 40 0 40 -80 0 c-64 0 -80 -3 -80 -15 0 -12 -16 -15
-80 -15 -64 0 -80 3 -80 15 0 11 11 15 40 15 29 0 40 4 40 15 0 12 -16 15 -80
15 -64 0 -80 -3 -80 -15 0 -11 -11 -15 -40 -15 l-40 0 0 40 0 40 -80 0 c-64 0
-80 -3 -80 -15 0 -12 -16 -15 -80 -15 -64 0 -80 3 -80 15 0 11 11 15 40 15 29
0 40 4 40 15 0 12 -16 15 -80 15 -64 0 -80 -3 -80 -15 0 -11 -11 -15 -40 -15
l-40 0 0 40 0 40 -80 0 c-64 0 -80 -3 -80 -15 0 -12 -16 -15 -80 -15 -64 0
-80 3 -80 15 0 11 11 15 40 15 29 0 40 4 40 15 0 12 -16 15 -80 15 -64 0 -80
-3 -80 -15 0 -11 -11 -15 -40 -15 l-40 0 0 40 0 40 -80 0 c-64 0 -80 -3 -80
-15 0 -12 -16 -15 -80 -15 -64 0 -80 3 -80 15 0 11 11 15 40 15 29 0 40 4 40
15 0 12 -16 15 -80 15 -64 0 -80 -3 -80 -15 0 -11 -11 -15 -40 -15 l-40 0 0
40 0 40 -120 0 c-100 0 -120 3 -120 15 0 11 -11 15 -40 15 -29 0 -40 -4 -40
-15 0 -12 -16 -15 -80 -15 l-80 0 0 40 0 40 -120 0 c-100 0 -120 3 -120 15 0
11 -11 15 -40 15 -29 0 -40 -4 -40 -15 0 -12 -16 -15 -80 -15 l-80 0 0 40 0
40 -120 0 c-100 0 -120 3 -120 15 0 11 -11 15 -40 15 -29 0 -40 -4 -40 -15 0
-12 -16 -15 -80 -15 l-80 0 0 40 0 40 -120 0 c-100 0 -120 3 -120 15 0 11 -11
15 -40 15 -29 0 -40 -4 -40 -15 0 -12 -16 -15 -80 -15 l-80 0 0 40 0 40 -120
0 c-100 0 -120 3 -120 15 0 11 -11 15 -40 15 -29 0 -40 -4 -40 -15 0 -12 -16
-15 -80 -15 l-80 0 0 40 0 40 -120 0 c-100 0 -120 3 -120 15 0 11 -11 15 -40
15 -29 0 -40 -4 -40 -15 0 -12 -16 -15 -80 -15 l-80 0 0 40 0 40 -120 0 c-100
0 -120 3 -120 15 0 11 -11 15 -40 15 -29 0 -40 -4 -40 -15 0 -12 -16 -15 -80
-15 l-80 0 0 40 0 40 -120 0 c-100 0 -120 3 -120 15 0 11 -11 15 -40 15 -29 0
-40 -4 -40 -15 0 -11 -11 -15 -40 -15 -29 0 -40 4 -40 15 0 11 -11 15 -40 15
-36 0 -40 3 -40 25 l0 25 -120 0 c-100 0 -120 -2 -120 -15 0 -11 -11 -15 -40
-15 -29 0 -40 4 -40 15 0 11 -11 15 -40 15 -29 0 -40 4 -40 15 0 11 -11 15
-40 15 -36 0 -40 3 -40 25 l0 25 -200 0 c-171 0 -200 2 -200 15 0 11 -11 15
-40 15 -36 0 -40 3 -40 25 0 25 -1 25 -80 25 -64 0 -80 3 -80 15 0 11 -11 15
-40 15 -29 0 -40 -4 -40 -15 0 -12 -16 -15 -80 -15 -64 0 -80 3 -80 15 0 11
-11 15 -40 15 -36 0 -40 3 -40 25 l0 25 -200 0 c-171 0 -200 2 -200 15 0 11
-11 15 -40 15 -36 0 -40 3 -40 25 l0 25 -120 0 c-100 0 -120 3 -120 15 0 11
-11 15 -40 15 -29 0 -40 -4 -40 -15 0 -11 -11 -15 -40 -15 -29 0 -40 4 -40 15
0 11 -11 15 -40 15 -36 0 -40 3 -40 25 0 25 -1 25 -80 25 -64 0 -80 3 -80 15
0 12 -16 15 -80 15 -64 0 -80 -3 -80 -15 0 -11 -11 -15 -40 -15 -29 0 -40 4
-40 15 0 11 -11 15 -40 15 -36 0 -40 3 -40 25 0 25 -1 25 -80 25 -64 0 -80 3
-80 15 0 12 -16 15 -80 15 -64 0 -80 -3 -80 -15 0 -11 -11 -15 -40 -15 -29 0
-40 4 -40 15 0 11 -11 15 -40 15 -36 0 -40 3 -40 25 0 25 -1 25 -80 25 -64 0
-80 3 -80 15 0 12 -16 15 -80 15 -64 0 -80 -3 -80 -15 0 -11 -11 -15 -40 -15
-29 0 -40 4 -40 15 0 11 -11 15 -40 15 -36 0 -40 3 -40 25 0 25 -1 25 -80 25
-64 0 -80 3 -80 15 0 12 -16 15 -80 15 -64 0 -80 -3 -80 -15 0 -11 -11 -15
-40 -15 -29 0 -40 4 -40 15 0 11 -11 15 -40 15 -36 0 -40 3 -40 25 0 25 -1 25
-80 25 -64 0 -80 3 -80 15 0 12 -16 15 -80 15 -64 0 -80 -3 -80 -15 0 -11 -11
-15 -40 -15 -29 0 -40 4 -40 15 0 11 -11 15 -40 15 -36 0 -40 3 -40 25 0 25
-1 25 -80 25 -64 0 -80 3 -80 15 0 12 -16 15 -80 15 -64 0 -80 -3 -80 -15 0
-11 -11 -15 -40 -15 -29 0 -40 4 -40 15 0 11 -11 15 -40 15 -36 0 -40 3 -40
25 0 25 -1 25 -80 25 -64 0 -80 3 -80 15 0 12 -16 15 -80 15 -64 0 -80 -3 -80
-15 0 -11 -11 -15 -40 -15 -29 0 -40 4 -40 15 0 11 -11 15 -40 15 -36 0 -40 3
-40 25 0 25 -1 25 -80 25 -64 0 -80 3 -80 15 0 12 -16 15 -80 15 -64 0 -80 -3
-80 -15 0 -11 -11 -15 -40 -15 -29 0 -40 4 -40 15 0 11 -11 15 -40 15 -36 0
-40 3 -40 25 0 25 -1 25 -80 25 -64 0 -80 3 -80 15 0 12 -16 15 -80 15 -64 0
-80 -3 -80 -15 0 -11 -11 -15 -40 -15 -29 0 -40 4 -40 15 0 11 -11 15 -40 15
-36 0 -40 3 -40 25 0 25 -1 25 -80 25 -64 0 -80 3 -80 15 0 12 -16 15 -80 15
-64 0 -80 -3 -80 -15 0 -11 -11 -15 -40 -15 -29 0 -40 4 -40 15 0 11 -11 15
-40 15 -36 0 -40 3 -40 25 0 25 -1 25 -80 25 -64 0 -80 3 -80 15 0 12 -16 15
-80 15 -64 0 -80 -3 -80 -15 0 -11 -11 -15 -40 -15 -29 0 -40 4 -40 15 0 11
-11 15 -40 15 -36 0 -40 3 -40 25 0 25 -1 25 -80 25 -64 0 -80 3 -80 15 0 12
-16 15 -80 15 -64 0 -80 -3 -80 -15 0 -11 -11 -15 -40 -15 -29 0 -40 4 -40 15
0 11 -11 15 -40 15 -36 0 -40 3 -40 25 0 25 -1 25 -80 25 -64 0 -80 3 -80 15
0 12 -16 15 -80 15 -64 0 -80 -3 -80 -15 0 -12 -16 -15 -80 -15 l-80 0 0 40 0
40 -80 0 c-64 0 -80 3 -80 15 0 12 -16 15 -80 15 -64 0 -80 -3 -80 -15 0 -11
-11 -15 -40 -15 -29 0 -40 4 -40 15 0 11 -11 15 -40 15 -36 0 -40 3 -40 25 0
25 -1 25 -80 25 -64 0 -80 3 -80 15 0 12 -16 15 -80 15 -64 0 -80 -3 -80 -15
0 -11 -11 -15 -40 -15 -29 0 -40 4 -40 15 0 11 -11 15 -40 15 -36 0 -40 3 -40
25 0 25 -1 25 -80 25 -64 0 -80 3 -80 15 0 12 -16 15 -80 15 -64 0 -80 -3 -80
-15 0 -12 -16 -15 -80 -15 l-80 0 0 40 0 40 -120 0 c-100 0 -120 3 -120 15 0
11 -11 15 -40 15 -29 0 -40 -4 -40 -15 0 -11 -11 -15 -40 -15 -29 0 -40 4 -40
15 0 11 -11 15 -40 15 -36 0 -40 3 -40 25 l0 25 -120 0 c-100 0 -120 3 -120
15 0 11 -11 15 -40 15 -29 0 -40 -4 -40 -15 0 -11 -11 -15 -40 -15 -29 0 -40
4 -40 15 0 11 -11 15 -40 15 -36 0 -40 3 -40 25 l0 25 -120 0 c-100 0 -120 3
-120 15 0 11 -11 15 -40 15 -29 0 -40 -4 -40 -15 0 -11 11 -15 40 -15 29 0 40
-4 40 -15 0 -12 -16 -15 -80 -15 -64 0 -80 3 -80 15 0 12 -16 15 -80 15 l-80
0 0 40 0 40 -80 0 c-64 0 -80 -3 -80 -15 0 -12 -16 -15 -80 -15 -64 0 -80 3
-80 15 0 11 11 15 40 15 29 0 40 4 40 15 0 12 -16 15 -80 15 -64 0 -80 -3 -80
-15 0 -11 -11 -15 -40 -15 l-40 0 0 40 0 40 -80 0 c-64 0 -80 -3 -80 -15 0
-12 -16 -15 -80 -15 -64 0 -80 3 -80 15 0 11 11 15 40 15 29 0 40 4 40 15 0
12 -16 15 -80 15 -64 0 -80 -3 -80 -15 0 -11 -11 -15 -40 -15 l-40 0 0 40 0
40 -80 0 c-64 0 -80 -3 -80 -15 0 -12 -16 -15 -80 -15 -64 0 -80 3 -80 15 0
11 11 15 40 15 29 0 40 4 40 15 0 12 -16 15 -80 15 -64 0 -80 -3 -80 -15 0
-11 -11 -15 -40 -15 l-40 0 0 40 0 40 -80 0 c-64 0 -80 -3 -80 -15 0 -12 -16
-15 -80 -15 -64 0 -80 3 -80 15 0 11 11 15 40 15 29 0 40 4 40 15 0 11 -11 15
-40 15 -29 0 -40 -4 -40 -15 0 -12 -16 -15 -80 -15 l-80 0 0 40 0 40 -80 0
c-64 0 -80 -3 -80 -15 0 -12 -16 -15 -80 -15 -64 0 -80 3 -80 15 0 11 11 15
40 15 29 0 40 4 40 15 0 11 -11 15 -40 15 -29 0 -40 -4 -40 -15 0 -12 -16 -15
-80 -15 l-80 0 0 40 0 40 -80 0 c-64 0 -80 -3 -80 -15 0 -12 -16 -15 -80 -15
-64 0 -80 3 -80 15 0 11 11 15 40 15 29 0 40 4 40 15 0 11 -11 15 -40 15 -29
0 -40 -4 -40 -15 0 -12 -16 -15 -80 -15 l-80 0 0 40 0 40 -80 0 c-64 0 -80 -3
-80 -15 0 -12 -16 -15 -80 -15 -64 0 -80 3 -80 15 0 11 11 15 40 15 29 0 40 4
40 15 0 11 -11 15 -40 15 -29 0 -40 -4 -40 -15 0 -12 -16 -15 -80 -15 l-80 0
0 40 0 40 -80 0 c-64 0 -80 -3 -80 -15 0 -12 -16 -15 -80 -15 -64 0 -80 3 -80
15 0 11 11 15 40 15 29 0 40 4 40 15 0 11 -11 15 -40 15 -29 0 -40 -4 -40 -15
0 -12 -16 -15 -80 -15 l-80 0 0 40 0 40 -80 0 c-64 0 -80 -3 -80 -15 0 -12
-16 -15 -80 -15 -64 0 -80 3 -80 15 0 11 11 15 40 15 29 0 40 4 40 15 0 12
-16 15 -80 15 -64 0 -80 -3 -80 -15 0 -11 -11 -15 -40 -15 l-40 0 0 40 0 40
-80 0 c-64 0 -80 -3 -80 -15 0 -12 -16 -15 -80 -15 -64 0 -80 3 -80 15 0 11
11 15 40 15 29 0 40 4 40 15 0 12 -16 15 -80 15 -64 0 -80 -3 -80 -15 0 -11
-11 -15 -40 -15 l-40 0 0 40 0 40 -80 0 c-64 0 -80 -3 -80 -15 0 -12 -16 -15
-80 -15 -64 0 -80 3 -80 15 0 11 11 15 40 15 29 0 40 4 40 15 0 12 -16 15 -80
15 -64 0 -80 -3 -80 -15 0 -11 -11 -15 -40 -15 l-40 0 0 40 0 40 -80 0 c-64 0
-80 -3 -80 -15 0 -12 -16 -15 -80 -15 -64 0 -80 3 -80 15 0 11 11 15 40 15 29
0 40 4 40 15 0 12 -16 15 -80 15 -64 0 -80 -3 -80 -15 0 -12 -16 -15 -80 -15
l-80 0 0 40 0 40 -40 0 c-29 0 -40 -4 -40 -15 0 -12 -16 -15 -80 -15 -64 0
-80 3 -80 15 0 11 11 15 40 15 29 0 40 4 40 15 0 12 -16 15 -80 15 -64 0 -80
-3 -80 -15 0 -12 -16 -15 -80 -15 l-80 0 0 40 0 40 -40 0 c-29 0 -40 -4 -40
-15 0 -12 -16 -15 -80 -15 -64 0 -80 3 -80 15 0 11 11 15 40 15 29 0 40 4 40
15 0 12 -16 15 -80 15 -64 0 -80 -3 -80 -15 0 -12 -16 -15 -80 -15 l-80 0 0
40 0 40 -40 0 c-29 0 -40 -4 -40 -15 0 -12 -16 -15 -80 -15 -64 0 -80 3 -80
15 0 11 11 15 40 15 29 0 40 4 40 15 0 12 -16 15 -80 15 -64 0 -80 -3 -80 -15
0 -12 -16 -15 -80 -15 l-80 0 0 40 0 40 -40 0 c-29 0 -40 -4 -40 -15 0 -12
-16 -15 -80 -15 -64 0 -80 3 -80 15 0 11 11 15 40 15 29 0 40 4 40 15 0 12
-16 15 -80 15 -64 0 -80 -3 -80 -15 0 -12 -16 -15 -80 -15 l-80 0 0 40 0 40
-40 0 c-29 0 -40 -4 -40 -15 0 -12 -16 -15 -80 -15 -64 0 -80 3 -80 15 0 11
11 15 40 15 29 0 40 4 40 15 0 11 -11 15 -40 15 -29 0 -40 -4 -40 -15 0 -12
-20 -15 -120 -15 l-120 0 0 40 0 40 -40 0 c-29 0 -40 -4 -40 -15 0 -12 -16
-15 -80 -15 -64 0 -80 3 -80 15 0 11 11 15 40 15 29 0 40 4 40 15 0 11 -11 15
-40 15 -29 0 -40 -4 -40 -15 0 -12 -20 -15 -120 -15 l-120 0 0 40 0 40 -40 0
c-29 0 -40 -4 -40 -15 0 -12 -16 -15 -80 -15 -64 0 -80 3 -80 15 0 11 11 15
40 15 29 0 40 4 40 15 0 11 -11 15 -40 15 -29 0 -40 -4 -40 -15 0 -12 -20 -15
-120 -15 l-120 0 0 40 0 40 -40 0 c-29 0 -40 -4 -40 -15 0 -12 -16 -15 -80
-15 -64 0 -80 3 -80 15 0 11 11 15 40 15 29 0 40 4 40 15 0 11 -11 15 -40 15
-29 0 -40 -4 -40 -15 0 -12 -20 -15 -120 -15 l-120 0 0 40 0 40 -40 0 c-29 0
-40 -4 -40 -15 0 -12 -16 -15 -80 -15 -64 0 -80 3 -80 15 0 11 11 15 40 15 29
0 40 4 40 15 0 11 -11 15 -40 15 -29 0 -40 -4 -40 -15 0 -12 -20 -15 -120 -15
l-120 0 0 40 0 40 -40 0 c-29 0 -40 -4 -40 -15 0 -12 -16 -15 -80 -15 -64 0
-80 3 -80 15 0 11 11 15 40 15 29 0 40 4 40 15 0 11 -11 15 -40 15 -29 0 -40
-4 -40 -15 0 -12 -20 -15 -120 -15 l-120 0 0 40 0 40 -40 0 c-29 0 -40 -4 -40
-15 0 -12 -16 -15 -80 -15 -64 0 -80 3 -80 15 0 13 -20 15 -120 15 l-120 0 0
40 0 40 -40 0 c-29 0 -40 -4 -40 -15 0 -12 -16 -15 -80 -15 l-80 0 0 30 c0 28
-2 30 -40 30 -29 0 -40 -4 -40 -15 0 -12 -16 -15 -80 -15 l-80 0 0 40 0 40
-40 0 c-29 0 -40 -4 -40 -15 0 -12 -16 -15 -80 -15 l-80 0 0 30 c0 28 -2 30
-40 30 -29 0 -40 -4 -40 -15 0 -12 -16 -15 -80 -15 l-80 0 0 40 0 40 -40 0
c-29 0 -40 -4 -40 -15 0 -12 -16 -15 -80 -15 l-80 0 0 30 c0 28 -2 30 -40 30
-29 0 -40 -4 -40 -15 0 -12 -16 -15 -80 -15 l-80 0 0 40 0 40 -40 0 c-29 0
-40 -4 -40 -15 0 -12 -16 -15 -80 -15 l-80 0 0 30 c0 28 -2 30 -40 30 -29 0
-40 -4 -40 -15 0 -12 -16 -15 -80 -15 l-80 0 0 40 0 40 -40 0 c-29 0 -40 -4
-40 -15 0 -12 -16 -15 -80 -15 l-80 0 0 30 c0 28 -2 30 -40 30 -29 0 -40 -4
-40 -15 0 -12 -16 -15 -80 -15 l-80 0 0 40 0 40 -80 0 c-64 0 -80 -3 -80 -15
0 -12 -16 -15 -80 -15 -64 0 -80 3 -80 15 0 11 11 15 40 15 29 0 40 4 40 15 0
11 -11 15 -40 15 -29 0 -40 -4 -40 -15 0 -12 -16 -15 -80 -15 l-80 0 0 40 0
40 -80 0 c-64 0 -80 -3 -80 -15 0 -12 -16 -15 -80 -15 -64 0 -80 3 -80 15 0
11 11 15 40 15 29 0 40 4 40 15 0 11 -11 15 -40 15 -29 0 -40 -4 -40 -15 0
-12 -20 -15 -120 -15 l-120 0 0 40 0 40 -40 0 c-29 0 -40 -4 -40 -15 0 -12
-16 -15 -80 -15 -64 0 -80 3 -80 15 0 11 11 15 40 15 29 0 40 4 40 15 0 11
-11 15 -40 15 -29 0 -40 -4 -40 -15 0 -12 -20 -15 -120 -15 l-120 0 0 40 0 40
-40 0 c-29 0 -40 -4 -40 -15 0 -12 -16 -15 -80 -15 -64 0 -80 3 -80 15 0 13
-20 15 -120 15 l-120 0 0 40 0 40 -40 0 c-29 0 -40 -4 -40 -15 0 -12 -16 -15
-80 -15 -64 0 -80 3 -80 15 0 13 -20 15 -120 15 l-120 0 0 25 0 25 -120 0
c-100 0 -120 3 -120 15 0 11 11 15 40 15 29 0 40 4 40 15 0 11 -11 15 -40 15
-29 0 -40 -4 -40 -15 0 -12 -20 -15 -120 -15 l-120 0 0 25 0 25 -120 0 c-100
0 -120 3 -120 15 0 11 11 15 40 15 29 0 40 4 40 15 0 11 -11 15 -40 15 -29 0
-40 -4 -40 -15 0 -12 -20 -15 -120 -15 l-120 0 0 25 0 25 -120 0 c-100 0 -120
3 -120 15 0 11 11 15 40 15 29 0 40 4 40 15 0 11 -11 15 -40 15 -29 0 -40 -4
-40 -15 0 -12 -16 -15 -80 -15 l-80 0 0 40 0 40 -40 0 c-29 0 -40 -4 -40 -15
0 -12 -16 -15 -80 -15 -64 0 -80 3 -80 15 0 13 -20 15 -120 15 l-120 0 0 40 0
40 -40 0 c-29 0 -40 -4 -40 -15 0 -12 -16 -15 -80 -15 -64 0 -80 3 -80 15 0
13 -20 15 -120 15 l-120 0 0 40 0 40 -40 0 c-29 0 -40 -4 -40 -15 0 -12 -16
-15 -80 -15 -64 0 -80 3 -80 15 0 13 -20 15 -120 15 l-120 0 0 40 0 40 -40 0
c-29 0 -40 -4 -40 -15 0 -12 -20 -15 -120 -15 -100 0 -120 3 -120 15 0 11 11
15 40 15 29 0 40 4 40 15 0 11 -11 15 -40 15 -29 0 -40 -4 -40 -15 0 -12 -20
-15 -120 -15 l-120 0 0 25 0 25 -160 0 c-136 0 -160 2 -160 15 0 13 -20 15
-120 15 l-120 0 0 25 c0 23 -4 25 -40 25 -29 0 -40 4 -40 15 0 11 -11 15 -40
15 -29 0 -40 -4 -40 -15 0 -12 -16 -15 -80 -15 -64 0 -80 3 -80 15 0 11 11 15
40 15 29 0 40 4 40 15 0 11 -11 15 -40 15 -29 0 -40 -4 -40 -15 0 -13 -24 -15
-160 -15 l-160 0 0 40 0 40 -40 0 c-29 0 -40 -4 -40 -15 0 -11 -11 -15 -40
-15 -29 0 -40 4 -40 15 0 11 -11 15 -40 15 -29 0 -40 -4 -40 -15 0 -12 -20
-15 -120 -15 -100 0 -120 3 -120 15 0 12 16 15 80 15 64 0 80 3 80 15 0 12
-16 15 -80 15 -64 0 -80 -3 -80 -15z m21840 -3550 c0 -11 -11 -15 -40 -15 -29
0 -40 4 -40 15 0 11 11 15 40 15 29 0 40 -4 40 -15z m480 -80 c0 -11 -11 -15
-40 -15 -29 0 -40 4 -40 15 0 11 11 15 40 15 29 0 40 -4 40 -15z m480 -80 c0
-11 -11 -15 -40 -15 -29 0 -40 4 -40 15 0 11 11 15 40 15 29 0 40 -4 40 -15z
m10080 -1680 c0 -11 -11 -15 -40 -15 -29 0 -40 4 -40 15 0 11 11 15 40 15 29
0 40 -4 40 -15z m480 -80 c0 -11 -11 -15 -40 -15 -29 0 -40 4 -40 15 0 11 11
15 40 15 29 0 40 -4 40 -15z m960 -160 c0 -11 -11 -15 -40 -15 -29 0 -40 4
-40 15 0 11 11 15 40 15 29 0 40 -4 40 -15z m480 -80 c0 -11 -11 -15 -40 -15
-29 0 -40 4 -40 15 0 11 11 15 40 15 29 0 40 -4 40 -15z m480 -80 c0 -11 -11
-15 -40 -15 -29 0 -40 4 -40 15 0 11 11 15 40 15 29 0 40 -4 40 -15z m480 -80
c0 -11 -11 -15 -40 -15 -29 0 -40 4 -40 15 0 11 11 15 40 15 29 0 40 -4 40
-15z m480 -80 c0 -11 -11 -15 -40 -15 -29 0 -40 4 -40 15 0 11 11 15 40 15 29
0 40 -4 40 -15z m-36000 -21250 c0 -11 -11 -15 -40 -15 -29 0 -40 4 -40 15 0
11 11 15 40 15 29 0 40 -4 40 -15z m3040 -720 c0 -11 -11 -15 -40 -15 -29 0
-40 4 -40 15 0 11 11 15 40 15 29 0 40 -4 40 -15z m8960 -1280 c0 -11 -11 -15
-40 -15 -29 0 -40 4 -40 15 0 11 11 15 40 15 29 0 40 -4 40 -15z m640 -135 l0
-40 -80 0 -80 0 0 40 0 40 80 0 80 0 0 -40z"/>
<path d="M1680 189100 l0 -40 40 0 40 0 0 40 0 40 -40 0 -40 0 0 -40z"/>
<path d="M4640 188485 c0 -11 11 -15 40 -15 29 0 40 4 40 15 0 11 -11 15 -40
15 -29 0 -40 -4 -40 -15z"/>
<path d="M6480 188195 c0 -11 11 -15 40 -15 29 0 40 -4 40 -15 0 -11 11 -15
40 -15 29 0 40 4 40 15 0 11 -11 15 -40 15 -29 0 -40 4 -40 15 0 11 -11 15
-40 15 -29 0 -40 -4 -40 -15z"/>
<path d="M9360 187685 c0 -11 11 -15 40 -15 29 0 40 4 40 15 0 11 -11 15 -40
15 -29 0 -40 -4 -40 -15z"/>
<path d="M18880 186540 l0 -40 40 0 40 0 0 40 0 40 -40 0 -40 0 0 -40z"/>
<path d="M43040 91180 l0 -40 -120 0 -120 0 0 -40 0 -40 -120 0 -120 0 0 40 0
40 -160 0 -160 0 0 -120 0 -120 -80 0 -80 0 0 80 0 80 -80 0 -80 0 0 40 0 40
-20960 0 -20960 0 0 -23840 0 -23840 22500 0 22500 0 0 23280 c0 23273 0
23280 -20 23280 -18 0 -20 7 -20 80 l0 80 -40 0 -40 0 0 80 0 80 -40 0 -40 0
0 -40 0 -40 -40 0 -40 0 0 40 0 40 -40 0 -40 0 0 120 0 120 -40 0 -40 0 0 -40
c0 -29 -4 -40 -15 -40 -11 0 -15 11 -15 40 0 36 -2 40 -25 40 -22 0 -25 -4
-25 -40 l0 -40 -80 0 -80 0 0 120 0 120 -40 0 -40 0 0 40 0 40 -40 0 -40 0 0
-40 0 -40 -120 0 -120 0 0 80 0 80 -40 0 -40 0 0 40 0 40 -80 0 -80 0 0 40 0
40 -40 0 -40 0 0 -40 0 -40 -40 0 -40 0 0 -40 0 -40 -40 0 -40 0 0 80 0 80
-80 0 -80 0 0 40 0 40 -40 0 -40 0 0 -40 0 -40 -55 0 -55 0 0 40 c0 22 -4 40
-10 40 -5 0 -10 18 -10 40 0 29 -4 40 -15 40 -11 0 -15 -11 -15 -40z m-160
-240 l0 -40 -40 0 -40 0 0 -40 0 -40 -40 0 -40 0 0 80 0 80 80 0 80 0 0 -40z
m-800 -60 c0 -17 -7 -20 -40 -20 -33 0 -40 3 -40 20 0 17 7 20 40 20 33 0 40
-3 40 -20z"/>
</g>
</svg>
