<svg width="83" height="69" viewBox="0 0 83 69" fill="none" xmlns="http://www.w3.org/2000/svg">
<g clip-path="url(#clip0_34_311)">
<path d="M0.138778 24.6768C0.217498 7.14328 16.1179 -4.0597 31.5153 1.38494C34.2741 2.36013 35.0742 4.85686 33.3553 7.27487C30.7387 10.9524 29.4486 14.8779 30.5002 19.4566C31.2792 22.8451 29.8728 25.9046 28.4511 28.856C27.3044 31.2423 27.1199 33.4782 28.9211 35.5813C30.3956 37.3097 33.1755 37.7785 35.7944 36.8303C38.4134 35.8821 40.3449 34.1714 41.7302 31.7886C43.032 29.5481 44.315 27.2957 45.6603 25.081C47.2383 22.4797 49.6704 22.072 51.7982 24.1704C57.5561 29.8524 63.2741 35.5743 68.9522 41.3361C70.6288 43.0316 70.5877 45.056 69.0262 46.5822C67.4095 48.1637 65.371 48.1508 63.6215 46.4142C58.6621 41.5042 53.745 36.5518 48.808 31.6206C48.4555 31.2682 48.0936 30.7171 47.7024 30.6807C46.934 30.6184 45.6122 30.6525 45.47 31.0155C45.1763 31.7757 45.1551 33.0681 45.6298 33.6239C47.3475 35.6365 49.3144 37.4366 51.1907 39.3129C54.2456 42.3677 57.3031 45.4206 60.3635 48.4715C62.3068 50.4184 62.4948 52.5239 60.891 54.184C59.2296 55.9053 56.9632 55.8031 55.0269 53.8738C50.2097 49.0801 45.43 44.2606 40.6058 39.4809C40.1499 39.0298 39.5108 38.5504 38.9245 38.5081C38.364 38.467 37.5451 38.8324 37.242 39.2871C36.9388 39.7418 37.0281 40.5536 37.2091 41.127C37.363 41.6087 37.8776 41.9906 38.2665 42.3818C42.9733 47.109 47.6836 51.831 52.3974 56.548C53.5547 57.7053 53.9824 59.0776 53.4172 60.6097C52.885 62.0502 51.7383 63.0947 50.2167 63.0089C49.1005 62.9467 47.7635 62.4614 46.9716 61.7001C42.2989 57.2071 37.7566 52.5779 33.1685 47.9957C32.9065 47.7336 32.6304 47.4869 32.3742 47.219C31.4966 46.3061 30.4884 45.8714 29.4839 46.8912C28.4335 47.9557 28.8706 48.9955 29.8235 49.9461C33.2801 53.3886 36.7266 56.8402 40.1629 60.3007C40.6434 60.7813 41.1404 61.2407 41.6021 61.7435C43.3258 63.6035 43.3645 65.6913 41.7138 67.3174C40.0912 68.92 37.9775 68.8448 36.1504 67.019C30.2018 61.0915 24.2954 55.1205 18.3361 49.2035C14.1745 45.0713 9.94829 41.0048 5.75731 36.9008C1.994 33.2268 0.00366054 28.802 0.138778 24.6768Z" fill="url(#paint0_linear_34_311)"/>
<path d="M41.0321 24.7135C40.6514 22.709 40.2719 20.7034 39.8572 18.5133C39.5153 18.8353 39.1734 19.3358 38.6987 19.5708C37.7423 20.0243 36.4276 20.8844 35.7837 20.5542C34.8837 20.0936 34.1071 18.7659 33.9038 17.6909C33.3822 14.9122 34.2469 12.3238 35.7837 9.97745C38.5601 5.7242 42.7087 3.38256 47.3967 1.92917C55.0796 -0.452417 62.7695 -0.484139 70.1575 2.91024C79.6604 7.27511 84.4623 17.7238 82.237 28.5978C81.5203 32.1002 79.9835 35.2291 77.7605 38.0254C75.6762 40.6479 73.5883 40.7806 71.2396 38.4284C65.7539 32.9321 60.3304 27.3735 54.7495 21.9794C53.2314 20.5107 51.3515 19.3111 49.4482 18.3735C47.0501 17.1915 45.5709 17.8624 44.2655 20.1817C43.4219 21.6778 42.5736 23.1704 41.7206 24.6594L41.0321 24.7135Z" fill="url(#paint1_linear_34_311)"/>
<path d="M33.1601 33.6383C31.534 33.5126 30.9277 32.5492 31.3977 31.2133C32.3462 28.4992 33.2748 25.7788 34.1834 23.0522C34.5794 21.8549 35.4324 21.6282 36.5098 21.8326C39.5 22.4013 41.1155 25.8274 39.5999 28.4451C38.3239 30.6434 36.9527 32.7724 34.234 33.428C33.8168 33.5279 33.3939 33.5937 33.1601 33.6383Z" fill="url(#paint2_linear_34_311)"/>
</g>
<defs>
<linearGradient id="paint0_linear_34_311" x1="35.1679" y1="0.000488281" x2="35.1679" y2="68.4577" gradientUnits="userSpaceOnUse">
<stop stop-color="#65B8A2"/>
<stop offset="1" stop-color="#3D7778"/>
</linearGradient>
<linearGradient id="paint1_linear_34_311" x1="58.2633" y1="0.239014" x2="58.2633" y2="40.0978" gradientUnits="userSpaceOnUse">
<stop stop-color="#65B8A2"/>
<stop offset="1" stop-color="#3D7778"/>
</linearGradient>
<linearGradient id="paint2_linear_34_311" x1="35.7106" y1="21.7659" x2="35.7106" y2="33.6383" gradientUnits="userSpaceOnUse">
<stop stop-color="#65B8A2"/>
<stop offset="1" stop-color="#3D7778"/>
</linearGradient>
<clipPath id="clip0_34_311">
<rect width="82.64" height="68.4621" fill="white" transform="translate(0.132812)"/>
</clipPath>
</defs>
</svg>
