<svg width="33" height="30" viewBox="0 0 33 30" fill="none" xmlns="http://www.w3.org/2000/svg">
<path d="M1.47765 7.49905H2.77972C2.90917 7.49905 3.03733 7.52419 3.15689 7.57304C3.27645 7.62189 3.38507 7.6935 3.47649 7.78374C3.56792 7.87398 3.64037 7.98109 3.6897 8.09895C3.73904 8.2168 3.76428 8.34309 3.76399 8.47056V8.71181H4.53641L6.14745 1.22446C6.19361 1.00684 6.31448 0.811527 6.48973 0.671397C6.66499 0.531266 6.88391 0.454877 7.10966 0.455079H25.8793C26.1052 0.455187 26.3242 0.531651 26.4998 0.671689C26.6753 0.811726 26.7967 1.00685 26.8437 1.22446L28.4525 8.71181H29.225V8.48143C29.225 8.35395 29.2505 8.22772 29.3001 8.10997C29.3497 7.99222 29.4224 7.88528 29.514 7.79524C29.6057 7.7052 29.7144 7.63385 29.8341 7.58526C29.9538 7.53667 30.082 7.5118 30.2114 7.51209H31.5135C31.643 7.51152 31.7714 7.53618 31.8912 7.58466C32.011 7.63315 32.1199 7.70449 32.2116 7.79459C32.3033 7.88468 32.376 7.99176 32.4255 8.10964C32.475 8.22752 32.5003 8.35387 32.5 8.48143V11.5546C32.5 11.8117 32.3963 12.0582 32.2117 12.24C32.0271 12.4218 31.7768 12.5239 31.5157 12.5239H30.2137C29.9524 12.5239 29.7018 12.4219 29.5169 12.2402C29.332 12.0584 29.2278 11.8119 29.2272 11.5546V10.0028H28.6644V25.8686C28.6638 26.1259 28.5596 26.3724 28.3747 26.5541C28.1898 26.7359 27.9392 26.8379 27.6779 26.8379H27.2542V28.0007C27.2542 28.4128 27.088 28.8081 26.792 29.0995C26.4961 29.3909 26.0948 29.5547 25.6763 29.5547H24.2352C23.8167 29.5547 23.4153 29.3909 23.1194 29.0995C22.8235 28.8081 22.6572 28.4128 22.6572 28.0007V26.8379H10.345V28.0007C10.345 28.4125 10.179 28.8074 9.88358 29.0988C9.58814 29.3901 9.18734 29.5541 8.76923 29.5547H7.32372C6.90561 29.5541 6.50483 29.3901 6.20939 29.0988C5.91394 28.8074 5.748 28.4125 5.748 28.0007V26.8379H5.32206C5.06102 26.8379 4.81066 26.7358 4.62608 26.554C4.44149 26.3722 4.3378 26.1257 4.3378 25.8686V10.0028H3.77504V11.5394C3.77475 11.667 3.74894 11.7933 3.69909 11.911C3.64925 12.0288 3.57634 12.1357 3.48453 12.2257C3.39272 12.3157 3.28382 12.387 3.16402 12.4356C3.04422 12.4842 2.91589 12.509 2.78634 12.5087H1.48647C1.22522 12.5087 0.974644 12.4067 0.789705 12.225C0.604767 12.0432 0.500582 11.7967 0.499996 11.5394V8.48143C0.497051 8.35327 0.52018 8.22584 0.56802 8.10663C0.615858 7.98741 0.687445 7.87883 0.778553 7.78728C0.869661 7.69573 0.978449 7.62306 1.09851 7.57356C1.21858 7.52406 1.34749 7.49873 1.47765 7.49905ZM25.012 23.3475C25.3695 23.3475 25.7189 23.2431 26.0162 23.0475C26.3134 22.8519 26.5451 22.5739 26.6819 22.2486C26.8187 21.9234 26.8545 21.5655 26.7847 21.2202C26.715 20.8749 26.5428 20.5577 26.2901 20.3088C26.0373 20.0599 25.7152 19.8903 25.3646 19.8216C25.014 19.753 24.6506 19.7882 24.3203 19.9229C23.9901 20.0577 23.7078 20.2858 23.5092 20.5785C23.3106 20.8712 23.2046 21.2154 23.2046 21.5675C23.2046 22.0395 23.395 22.4923 23.7339 22.8261C24.0729 23.1599 24.5326 23.3475 25.012 23.3475ZM11.7353 24.8015H21.2581V23.9908H11.7353V24.8015ZM11.7353 23.1866H21.2581V22.3759H11.7353V23.1866ZM11.7353 21.5675H21.2581V20.7589H11.7353V21.5675ZM11.7353 19.9504H21.2581V19.1419H11.7353V19.9504ZM16.4956 16.1948C19.9415 16.2178 23.3738 15.7679 26.6937 14.8582V9.88761L25.0848 2.39592H7.90855L6.29973 9.88545V14.856C9.61829 15.7685 13.0502 16.2191 16.4956 16.1948ZM7.98138 23.3475C8.33877 23.347 8.688 23.2423 8.98494 23.0464C9.28188 22.8506 9.5132 22.5724 9.64966 22.2471C9.78613 21.9218 9.8216 21.564 9.75162 21.2189C9.68163 20.8737 9.50931 20.5567 9.25645 20.308C9.00359 20.0593 8.68153 19.89 8.33098 19.8215C7.98043 19.753 7.61713 19.7884 7.28699 19.9231C6.95685 20.0579 6.67469 20.2861 6.47618 20.5788C6.27768 20.8714 6.17173 21.2155 6.17172 21.5675C6.17172 21.8014 6.21855 22.033 6.30952 22.2491C6.40049 22.4652 6.53383 22.6616 6.7019 22.8269C6.86997 22.9922 7.06948 23.1233 7.28902 23.2126C7.50857 23.3019 7.74384 23.3477 7.98138 23.3475Z" fill="#1E3A3A"/>
</svg>
