<svg width="36" height="27" viewBox="0 0 36 27" fill="none" xmlns="http://www.w3.org/2000/svg">
<path d="M33.5455 7.72126H30.1512C30.088 7.72174 30.0257 7.73554 29.9683 7.76177C29.9109 7.788 29.8597 7.82604 29.8182 7.87341L27.3405 3.85528C27.327 3.83362 27.3105 3.81393 27.2916 3.79677C26.6247 3.19255 25.7673 2.83871 24.8668 2.79614H24.2988V1.49902H22.8416V2.79614H13.1562V1.49902H11.699V2.79614H11.3072C10.4064 2.83857 9.54791 3.18925 8.8766 3.78896C8.86006 3.80656 8.84497 3.82548 8.83153 3.84553L6.21678 7.91242C6.17678 7.85309 6.12291 7.80434 6.05979 7.77036C5.99667 7.73638 5.92618 7.71819 5.85443 7.71736H2.46015C2.34015 7.71736 2.22507 7.76483 2.14022 7.84933C2.05537 7.93383 2.00769 8.04844 2.00769 8.16794V9.97024C2.00744 10.0296 2.01895 10.0884 2.04157 10.1433C2.0642 10.1982 2.09749 10.2481 2.13953 10.2901C2.18157 10.3322 2.23152 10.3655 2.28655 10.3883C2.34157 10.4111 2.40057 10.4228 2.46015 10.4228H4.43639C3.29256 11.5248 2.54632 13.5436 2.54632 15.0027V19.4206C2.54315 20.2459 2.78061 21.0542 3.22987 21.7476V23.7489C3.22703 23.9766 3.26927 24.2027 3.35415 24.4141C3.43904 24.6256 3.56491 24.8184 3.7246 24.9814C3.88429 25.1444 4.07465 25.2745 4.28483 25.3642C4.49501 25.454 4.72089 25.5016 4.94955 25.5044H7.04527C7.27401 25.5018 7.5 25.4544 7.7103 25.3647C7.92059 25.2751 8.11108 25.145 8.27082 24.9819C8.43056 24.8189 8.55643 24.626 8.64122 24.4144C8.72601 24.2028 8.76805 23.9767 8.76495 23.7489V23.4193H27.2504V23.7489C27.2452 24.2086 27.4233 24.6517 27.7457 24.9808C28.0681 25.3099 28.5085 25.4982 28.9701 25.5044H31.0678C31.2965 25.5018 31.5225 25.4544 31.7328 25.3647C31.9431 25.2751 32.1336 25.145 32.2933 24.9819C32.4531 24.8189 32.579 24.626 32.6637 24.4144C32.7485 24.2028 32.7906 23.9767 32.7875 23.7489V21.7515C33.2364 21.0581 33.4732 20.2496 33.4691 19.4245V15.0085C33.4691 13.5417 32.7228 11.5287 31.579 10.4267H33.5553C33.6753 10.4267 33.7903 10.3792 33.8752 10.2947C33.96 10.2102 34.0077 10.0956 34.0077 9.97609V8.17379C34.0077 8.1137 33.9957 8.05421 33.9724 7.9988C33.9491 7.94338 33.9149 7.89314 33.8718 7.85102C33.8288 7.80889 33.7778 7.77572 33.7218 7.75344C33.6657 7.73117 33.6058 7.72023 33.5455 7.72126ZM10.0185 4.89102C10.4063 4.61911 10.8572 4.44996 11.3288 4.39948H24.8962C25.3284 4.4415 25.7416 4.59773 26.0929 4.85201L29.0308 9.62695H6.97868L10.0185 4.89102ZM24.101 14.437V17.6437H23.1706V14.437H24.101ZM22.491 14.437V17.6437H21.5587V14.437H22.491ZM20.879 14.437V17.6437H19.9487V14.437H20.879ZM19.271 14.437V17.6437H18.3387V14.437H19.271ZM17.661 14.437V17.6437H16.7268V14.437H17.661ZM16.0491 14.437V17.6437H15.1168V14.437H16.0491ZM14.4371 14.437V17.6437H13.5068V14.437H14.4371ZM12.8271 14.437V17.6437H11.8968V14.437H12.8271ZM6.40286 21.4336C3.66079 20.5032 4.9946 18.6833 4.9946 18.6833H8.25375L10.4278 21.4336H6.40286ZM10.753 17.6456H4.52452V14.437H10.753V17.6456ZM22.7241 21.4336H13.2757C12.2964 21.4336 11.5031 20.5598 11.5031 19.4831H24.4947C24.4947 20.5617 23.7014 21.4336 22.7241 21.4336ZM29.5949 21.4336H25.568L27.7421 18.6833H31.0032C31.0032 18.6833 32.3311 20.5032 29.5949 21.4336ZM31.4732 17.6456H25.2468V14.437H31.4732V17.6456Z" fill="#1E3A3A"/>
</svg>
