<svg width="83" height="87" viewBox="0 0 83 87" fill="none" xmlns="http://www.w3.org/2000/svg">
<g clip-path="url(#clip0_1_1352)">
<path d="M64.3932 65.258C64.3932 73.4963 59.6203 76.0104 57.3133 76.7536C57.3839 78.1552 57.0529 79.5479 56.3587 80.77C55.8716 81.547 55.224 82.2124 54.4588 82.7222C53.6936 83.2319 52.8282 83.5744 51.9198 83.7269C51.5235 84.7145 50.8322 85.5577 49.939 86.1429C49.0458 86.7281 47.9936 87.0273 46.9241 87.0001H46.4468C45.2032 86.9305 44.0363 86.3806 43.195 85.4677C42.3538 84.5548 41.9049 83.3513 41.9443 82.114V49.0818C41.9619 48.2513 42.2579 47.4504 42.7853 46.806C43.3127 46.1616 44.0413 45.7104 44.8558 45.524C45.9234 45.2241 47.0588 45.2658 48.1012 45.6433C49.1435 46.0208 50.0398 46.7149 50.6629 47.6271C52.5796 47.6313 54.4227 48.3606 55.8178 49.6669C56.8152 50.7168 57.4263 52.0708 57.552 53.5093C59.7475 54.2525 64.3932 56.8299 64.3932 65.258ZM61.8158 65.258C61.8158 56.8932 56.4223 56.1342 56.1837 56.1026H55.9928C55.1874 55.9032 54.3362 56.0104 53.6063 56.403C53.3688 56.7278 53.191 57.0918 53.0813 57.4783C52.9242 58.2059 52.5676 58.8761 52.0509 59.4148C51.5342 59.9534 50.8776 60.3394 50.1538 60.53H49.9152C49.5977 60.5172 49.2952 60.3924 49.0619 60.178C48.8287 59.9635 48.68 59.6735 48.6424 59.3599C48.5719 59.0006 48.6388 58.628 48.8301 58.3151C49.0213 58.0022 49.3232 57.7715 49.6765 57.668C50.1856 57.5573 50.3288 57.3201 50.6948 56.3556C50.932 55.5986 51.3157 54.8949 51.8244 54.2841C52.6337 53.5313 53.7071 53.1227 54.8154 53.1456C54.6869 52.6411 54.4293 52.1781 54.0677 51.8016C52.9539 50.8764 51.5221 50.4172 50.0743 50.5208L49.231 50.5998L48.8492 49.7776C48.6206 49.2936 48.2551 48.8864 47.7974 48.6056C47.3397 48.3247 46.8095 48.1825 46.2718 48.1963C46.0088 48.1928 45.7466 48.2247 45.4922 48.2912C44.8876 48.4652 44.5058 48.813 44.5058 49.0344V68.9423H45.3013C45.9377 68.9423 46.1763 68.6418 46.7968 67.7405C47.31 66.7881 48.0813 65.9975 49.0232 65.4581C49.9652 64.9188 51.0402 64.6523 52.1266 64.6887C52.5106 64.6887 52.8789 64.8403 53.1504 65.1102C53.4219 65.38 53.5745 65.746 53.5745 66.1276C53.5745 66.5093 53.4219 66.8753 53.1504 67.1451C52.8789 67.415 52.5106 67.5666 52.1266 67.5666C51.448 67.5203 50.7713 67.6799 50.186 68.0244C49.6007 68.3689 49.1345 68.882 48.8492 69.4957C48.5165 70.1596 48.0132 70.7244 47.3901 71.1326C46.767 71.5408 46.0464 71.778 45.3013 71.8201H44.4899V82.0508C44.4899 83.7427 46.0809 84.0115 46.6377 84.0748C47.2823 84.1835 47.9446 84.0493 48.4948 83.6983C49.0451 83.3474 49.4438 82.805 49.6129 82.1773L49.772 81.0862L50.7425 80.9597C51.4211 80.9301 52.0842 80.7483 52.6821 80.428C53.28 80.1076 53.7972 79.6569 54.195 79.1097C54.5767 78.5161 54.8011 77.8361 54.8473 77.1331H54.7677C53.7347 77.1913 52.7107 76.9144 51.8499 76.344C50.989 75.7736 50.3379 74.9407 49.9947 73.9706C49.8618 73.6262 49.8543 73.2463 49.9734 72.8969C50.0925 72.5475 50.3308 72.2505 50.647 72.0573C50.809 71.9872 50.984 71.9518 51.1607 71.9534C51.3374 71.955 51.5117 71.9937 51.6724 72.0668C51.833 72.1399 51.9763 72.2458 52.093 72.3777C52.2096 72.5096 52.297 72.6644 52.3494 72.8321C52.7471 73.7809 53.4154 74.192 54.7995 74.192C55.1496 74.192 55.5155 74.192 55.9451 74.192C56.4383 74.1129 61.8476 73.3698 61.8476 65.258H61.8158Z" fill="url(#paint0_linear_1_1352)"/>
<path d="M40.3055 49.0818V82.0982C40.3448 83.3354 39.8959 84.539 39.0547 85.4519C38.2135 86.3648 37.0465 86.9147 35.8029 86.9842H35.3256C34.2535 87.0147 33.1978 86.717 32.3014 86.1316C31.4051 85.5462 30.7113 84.7012 30.314 83.711C29.407 83.5547 28.5431 83.2107 27.7784 82.7013C27.0138 82.1919 26.3653 81.5285 25.8751 80.7541C25.189 79.5289 24.8585 78.1385 24.9205 76.7377C22.5499 75.9946 17.8406 73.4804 17.8406 65.2421C17.8406 57.0038 22.5181 54.1734 24.6819 53.4935C24.8148 52.0569 25.4249 50.705 26.4161 49.651C27.8128 48.3475 29.6548 47.6186 31.5709 47.6113C32.1937 46.707 33.0848 46.0185 34.12 45.6415C35.1553 45.2645 36.2831 45.2179 37.3462 45.5082C38.1695 45.6911 38.9078 46.142 39.4439 46.7894C39.98 47.4368 40.2832 48.2436 40.3055 49.0818ZM37.7281 82.0982V71.8675H36.9166C36.173 71.8275 35.4537 71.591 34.8328 71.1824C34.2119 70.7737 33.712 70.2078 33.3846 69.5431C33.0947 68.9295 32.6253 68.4171 32.0378 68.073C31.4502 67.7288 30.7718 67.5688 30.0913 67.614C29.7442 67.5627 29.4272 67.3892 29.198 67.1251C28.9688 66.8609 28.8428 66.5238 28.8428 66.1751C28.8428 65.8263 28.9688 65.4891 29.198 65.225C29.4272 64.9609 29.7442 64.7874 30.0913 64.7361C31.1801 64.6985 32.2577 64.9644 33.2024 65.5037C34.1471 66.043 34.9211 66.8342 35.437 67.7879C36.0575 68.6892 36.2961 68.9897 36.9166 68.9897H37.7281V49.0818C37.7281 48.8604 37.3621 48.5125 36.7416 48.3386C36.4875 48.2709 36.2251 48.239 35.962 48.2437C35.428 48.228 34.9013 48.3698 34.4482 48.6512C33.9952 48.9326 33.6362 49.341 33.4164 49.825L33.0028 50.6472L32.1755 50.5682C30.7227 50.4638 29.2857 50.9228 28.1661 51.849C27.8161 52.2338 27.5602 52.6938 27.4184 53.193C28.531 53.1727 29.6084 53.5806 30.4254 54.3315C30.9294 54.9429 31.3078 55.6467 31.5391 56.403C31.9209 57.3675 32.0482 57.6047 32.5573 57.7154C32.9116 57.8188 33.2149 58.0488 33.4088 58.3612C33.6027 58.6736 33.6734 59.0462 33.6074 59.4073C33.5662 59.7222 33.4143 60.0125 33.1784 60.2267C32.9425 60.4409 32.6379 60.5651 32.3186 60.5774H32.08C31.3595 60.3804 30.7064 59.9923 30.1907 59.4547C29.6751 58.9172 29.3162 58.2504 29.1526 57.5257C29.0479 57.1373 28.8697 56.7724 28.6275 56.4504C27.9036 56.0573 27.057 55.95 26.257 56.15H26.066C25.8274 56.15 20.4339 56.9406 20.4339 65.3054C20.4339 73.4171 25.8433 74.1603 26.432 74.2236C28.6434 74.445 29.614 74.1129 30.0117 72.9269C30.0641 72.7592 30.1515 72.6044 30.2681 72.4725C30.3848 72.3407 30.5281 72.2347 30.6888 72.1616C30.8494 72.0885 31.0237 72.0499 31.2004 72.0482C31.3771 72.0466 31.5521 72.082 31.7141 72.1522C32.0331 72.3429 32.2747 72.6389 32.3968 72.9885C32.5189 73.3381 32.5138 73.7192 32.3823 74.0654C32.0391 75.0355 31.388 75.8684 30.5272 76.4388C29.6663 77.0092 28.6423 77.2862 27.6093 77.2279H27.5298C27.5268 77.9383 27.7135 78.6367 28.0707 79.2519C28.466 79.8017 28.9826 80.2542 29.581 80.5749C30.1795 80.8956 30.8438 81.0759 31.5231 81.102L32.5096 81.2285L32.6528 82.3195C32.8186 82.9492 33.2166 83.4938 33.7678 83.8453C34.3189 84.1968 34.9829 84.3295 35.6279 84.217C35.9058 84.215 36.1806 84.1585 36.4365 84.0509C36.6924 83.9433 36.9245 83.7866 37.1195 83.5899C37.3145 83.3931 37.4687 83.1601 37.5731 82.9042C37.6775 82.6482 37.7302 82.3743 37.7281 82.0982Z" fill="url(#paint1_linear_1_1352)"/>
<path d="M70.9799 31.6565C70.2796 32.3469 69.3332 32.7343 68.3468 32.7343C67.3604 32.7343 66.414 32.3469 65.7137 31.6565C59.193 25.186 50.3551 21.5518 41.1408 21.5518C31.9264 21.5518 23.0886 25.186 16.5678 31.6565C15.8695 32.3505 14.9223 32.7404 13.9347 32.7404C12.9471 32.7404 11.9999 32.3505 11.3016 31.6565C10.6033 30.9624 10.2109 30.0211 10.2109 29.0395C10.2109 28.058 10.6033 27.1166 11.3016 26.4225C19.223 18.5713 29.9536 14.1624 41.1408 14.1624C52.3279 14.1624 63.0586 18.5713 70.9799 26.4225C71.6746 27.1185 72.0644 28.0592 72.0644 29.0395C72.0644 30.0199 71.6746 30.9605 70.9799 31.6565Z" fill="url(#paint2_linear_1_1352)"/>
<path d="M81.0509 21.6472C80.3506 22.3376 79.4042 22.725 78.4178 22.725C77.4314 22.725 76.485 22.3376 75.7847 21.6472C66.5913 12.5252 54.1314 7.40182 41.1407 7.40182C28.15 7.40182 15.6902 12.5252 6.49676 21.6472C5.79841 22.3412 4.85126 22.7311 3.86366 22.7311C2.87605 22.7311 1.9289 22.3412 1.23056 21.6472C0.532218 20.9531 0.139893 20.0118 0.139893 19.0302C0.139893 18.0487 0.532218 17.1073 1.23056 16.4133C11.8246 5.91051 26.1772 0.0123291 41.1407 0.0123291C56.1042 0.0123291 70.4569 5.91051 81.0509 16.4133C81.7456 17.1093 82.1354 18.0499 82.1354 19.0302C82.1354 20.0106 81.7456 20.9512 81.0509 21.6472Z" fill="url(#paint3_linear_1_1352)"/>
<path d="M61.2112 41.3496C60.8665 41.6952 60.4564 41.9696 60.0044 42.1569C59.5525 42.3441 59.0677 42.4405 58.5781 42.4405C58.0885 42.4405 57.6037 42.3441 57.1517 42.1569C56.6998 41.9696 56.2896 41.6952 55.945 41.3496C52.0117 37.4544 46.6854 35.2672 41.1328 35.2672C35.5802 35.2672 30.2539 37.4544 26.3206 41.3496C25.9817 41.7213 25.5702 42.0207 25.1112 42.2295C24.6522 42.4383 24.1552 42.5521 23.6506 42.5641C23.1459 42.5761 22.6441 42.4859 22.1756 42.2991C21.7071 42.1123 21.2817 41.8328 20.9253 41.4775C20.5689 41.1222 20.2889 40.6986 20.1024 40.2324C19.9158 39.7662 19.8266 39.2672 19.8402 38.7656C19.8538 38.2641 19.9698 37.7706 20.1813 37.315C20.3928 36.8595 20.6952 36.4514 21.0703 36.1156C26.3995 30.8367 33.6167 27.8726 41.1408 27.8726C48.6648 27.8726 55.8821 30.8367 61.2112 36.1156C61.559 36.4582 61.835 36.8658 62.0234 37.315C62.2118 37.7642 62.3088 38.246 62.3088 38.7326C62.3088 39.2192 62.2118 39.7011 62.0234 40.1502C61.835 40.5994 61.559 41.007 61.2112 41.3496Z" fill="url(#paint4_linear_1_1352)"/>
</g>
<defs>
<linearGradient id="paint0_linear_1_1352" x1="53.1676" y1="45.326" x2="53.1676" y2="87.0018" gradientUnits="userSpaceOnUse">
<stop stop-color="#65B8A2"/>
<stop offset="1" stop-color="#2F5859" stop-opacity="0.71"/>
</linearGradient>
<linearGradient id="paint1_linear_1_1352" x1="29.0742" y1="45.3201" x2="29.0742" y2="86.9863" gradientUnits="userSpaceOnUse">
<stop stop-color="#65B8A2"/>
<stop offset="1" stop-color="#2F5859" stop-opacity="0.71"/>
</linearGradient>
<linearGradient id="paint2_linear_1_1352" x1="41.1377" y1="14.1624" x2="41.1377" y2="32.7404" gradientUnits="userSpaceOnUse">
<stop stop-color="#2F5859"/>
<stop offset="1" stop-color="#65B8A2"/>
</linearGradient>
<linearGradient id="paint3_linear_1_1352" x1="41.1376" y1="0.0123291" x2="41.1376" y2="22.7311" gradientUnits="userSpaceOnUse">
<stop stop-color="#2F5859"/>
<stop offset="1" stop-color="#65B8A2"/>
</linearGradient>
<linearGradient id="paint4_linear_1_1352" x1="41.0739" y1="27.8726" x2="41.0739" y2="42.5652" gradientUnits="userSpaceOnUse">
<stop stop-color="#2F5859"/>
<stop offset="1" stop-color="#65B8A2"/>
</linearGradient>
<clipPath id="clip0_1_1352">
<rect width="82" height="87" fill="white" transform="translate(0.132812)"/>
</clipPath>
</defs>
</svg>
