<svg width="101" height="79" viewBox="0 0 101 79" fill="none" xmlns="http://www.w3.org/2000/svg">
<path fill-rule="evenodd" clip-rule="evenodd" d="M55.8359 28.1409L55.8359 67.2117C55.8359 73.3769 60.8337 78.3748 66.999 78.3748L89.3252 78.3748C95.4904 78.3748 100.488 73.3769 100.488 67.2117L100.488 44.8855C100.488 38.7202 95.4904 33.7224 89.3252 33.7224L72.5805 33.7224L72.5805 28.1409C72.477 22.7345 76.2631 18.031 81.5668 16.9776C82.8042 16.6996 83.6984 15.6218 83.7436 14.3544L83.7436 3.19113C83.7851 2.32509 83.4371 1.48543 82.7948 0.902716C82.2011 0.373747 81.4064 0.129111 80.618 0.233099C66.4368 1.83104 55.746 13.8702 55.8359 28.1409ZM33.5084 78.3748L11.1821 78.3748C5.01707 78.3748 0.0190281 73.3769 0.0190287 67.2117L0.0190321 28.1409C-0.0420018 13.8915 10.6413 1.88454 24.8013 0.28885C25.5897 0.184861 26.3842 0.429506 26.9779 0.958726C27.5757 1.50276 27.9198 2.27134 27.9269 3.07961L27.9269 14.2426C27.9326 15.5522 27.0274 16.6895 25.75 16.9776C20.4462 18.031 16.6601 22.7345 16.7638 28.1409L16.7638 33.7224L33.5084 33.7224C39.6736 33.7224 44.6714 38.7202 44.6714 44.8855L44.6714 67.2117C44.6714 73.3769 39.6736 78.3748 33.5084 78.3748Z" fill="#2F5859"/>
</svg>
