<svg width="196" height="269" viewBox="0 0 196 269" fill="none" xmlns="http://www.w3.org/2000/svg">
<g clip-path="url(#clip0_43_18)">
<path d="M195.735 34.2992V3.79768C195.732 2.89172 195.379 2.02356 194.753 1.38295C194.126 0.742344 193.277 0.381403 192.391 0.379028H3.44869C2.56259 0.381403 1.71345 0.742344 1.08689 1.38295C0.460327 2.02356 0.107303 2.89172 0.10498 3.79768V34.2992C0.104977 35.2067 0.456983 36.0772 1.0838 36.7197C1.71061 37.3623 2.56107 37.7245 3.44869 37.7268H14.2735C14.1961 45.8794 14.145 58.2099 14.4495 64.7413C15.0549 77.5487 19.2591 88.6719 26.603 96.8838C32.6867 103.689 40.5585 108.219 48.1716 112.592C50.4876 113.923 52.6751 115.181 54.8221 116.503L55.079 116.662C58.0391 118.502 60.4859 121.09 62.1838 124.178C63.8818 127.265 64.7737 130.747 64.7737 134.289C64.7737 137.831 63.8818 141.313 62.1838 144.401C60.4859 147.488 58.0391 150.077 55.079 151.917L54.8203 152.077C52.6751 153.398 50.4876 154.655 48.1716 155.987C40.5585 160.363 32.685 164.89 26.603 171.695C19.2591 179.914 15.0549 191.028 14.4495 203.837C14.1415 210.368 14.1925 222.699 14.2735 230.852H3.44869C2.56259 230.854 1.71345 231.215 1.08689 231.855C0.460327 232.496 0.107303 233.364 0.10498 234.27V264.772C0.107303 265.678 0.460327 266.546 1.08689 267.186C1.71345 267.827 2.56259 268.188 3.44869 268.19H192.391C193.277 268.188 194.126 267.827 194.753 267.186C195.379 266.546 195.732 265.678 195.735 264.772V234.277C195.732 233.371 195.379 232.503 194.753 231.863C194.126 231.222 193.277 230.861 192.391 230.859H181.566C181.645 222.706 181.695 210.376 181.39 203.844C180.785 191.035 176.582 179.914 169.237 171.702C163.153 164.897 155.281 160.366 147.668 155.994C145.352 154.663 143.166 153.405 141.025 152.088L140.761 151.924C137.801 150.084 135.354 147.495 133.656 144.408C131.958 141.321 131.066 137.838 131.066 134.296C131.066 130.754 131.958 127.272 133.656 124.185C135.354 121.097 137.801 118.509 140.761 116.669L141.019 116.509C143.166 115.188 145.352 113.93 147.668 112.599C155.281 108.223 163.155 103.696 169.237 96.891C176.582 88.6719 180.785 77.5559 181.39 64.7485C181.698 58.2171 181.649 45.8866 181.566 37.734H192.391C193.28 37.7317 194.131 37.3685 194.758 36.7244C195.385 36.0803 195.736 35.208 195.735 34.2992ZM168.211 64.09C167.894 70.8085 166.123 80.3736 159.492 87.792C154.836 93.0099 148.21 96.8118 141.19 100.844C138.892 102.165 136.516 103.532 134.202 104.957L133.901 105.137C129.004 108.179 124.957 112.458 122.148 117.564C119.339 122.669 117.864 128.428 117.864 134.286C117.864 140.143 119.339 145.902 122.148 151.007C124.957 156.113 129.004 160.392 133.901 163.434L134.2 163.614C136.514 165.039 138.892 166.406 141.19 167.727C148.205 171.759 154.831 175.568 159.492 180.779C166.123 188.198 167.894 197.763 168.211 204.481C168.503 210.662 168.45 222.834 168.373 230.844H27.4582C27.3808 222.832 27.328 210.662 27.6202 204.481C27.9369 197.763 29.7073 188.198 36.3384 180.779C40.995 175.561 47.6208 171.759 54.6408 167.727C56.9286 166.406 59.315 165.039 61.6362 163.61L61.9283 163.43C66.8246 160.389 70.8721 156.109 73.681 151.004C76.4898 145.899 77.9653 140.14 77.9653 134.282C77.9653 128.424 76.4898 122.666 73.681 117.56C70.8721 112.455 66.8246 108.175 61.9283 105.134L61.6309 104.954C59.315 103.529 56.9374 102.161 54.6391 100.84C47.6243 96.8082 40.9985 92.9991 36.3367 87.7884C29.7056 80.37 27.9352 70.8049 27.6184 64.0864C27.3263 57.9058 27.3791 45.7337 27.4565 37.7232H168.371C168.457 45.7391 168.503 57.9095 168.211 64.09Z" fill="url(#paint0_linear_43_18)"/>
<path d="M88.1227 169.308C73.2977 175.739 56.852 182.95 49.9763 190.749C46.3246 194.887 45.2898 200.695 45.0909 204.86C44.9026 208.873 44.8815 214.037 44.915 220.788H150.914C150.949 214.028 150.928 208.873 150.738 204.86C150.539 200.695 149.506 194.892 145.853 190.749C138.977 182.95 122.531 175.739 107.706 169.308C104.609 167.964 101.279 167.272 97.9144 167.272C94.5499 167.272 91.2198 167.964 88.1227 169.308Z" fill="url(#paint1_linear_43_18)"/>
<path d="M92.9185 107.562C93.9744 109.527 95.3576 111.107 97.1139 111.107C98.7946 111.107 100.114 109.711 101.116 107.938C103.888 103.064 108.285 99.374 113.502 97.5438C121.903 94.5695 133.536 89.5945 139.526 83.2538C130.655 84.5313 121.306 82.3542 112.703 79.3368C101.968 75.5583 91.5247 70.4681 80.2634 69.0359C69.597 67.6792 57.6072 70.4033 50.8916 78.806C60.7379 87.914 72.8017 93.6987 80.9673 96.9032C86.0604 98.8964 90.2957 102.674 92.9185 107.562Z" fill="url(#paint2_linear_43_18)"/>
</g>
<defs>
<linearGradient id="paint0_linear_43_18" x1="97.9198" y1="0.379028" x2="97.9198" y2="268.19" gradientUnits="userSpaceOnUse">
<stop stop-color="#2F5859"/>
<stop offset="1" stop-color="#65B8A2"/>
</linearGradient>
<linearGradient id="paint1_linear_43_18" x1="97.9149" y1="167.272" x2="97.9149" y2="220.788" gradientUnits="userSpaceOnUse">
<stop stop-color="#2F5859"/>
<stop offset="1" stop-color="#65B8A2"/>
</linearGradient>
<linearGradient id="paint2_linear_43_18" x1="95.2089" y1="68.7046" x2="95.2089" y2="111.107" gradientUnits="userSpaceOnUse">
<stop stop-color="#2F5859"/>
<stop offset="1" stop-color="#65B8A2"/>
</linearGradient>
<clipPath id="clip0_43_18">
<rect width="195.638" height="267.838" fill="white" transform="translate(0.0952148 0.369629)"/>
</clipPath>
</defs>
</svg>
