<svg width="73" height="101" viewBox="0 0 73 101" fill="none" xmlns="http://www.w3.org/2000/svg">
<g clip-path="url(#clip0_1_1368)">
<path d="M45.7929 23.8199C44.7252 24.8318 43.3836 25.5074 41.935 25.7627C40.4863 26.0179 38.9946 25.8416 37.6454 25.2555C36.2962 24.6694 35.1491 23.6995 34.3469 22.4666C33.5448 21.2336 33.1229 19.7919 33.1338 18.321C33.1446 16.85 33.5879 15.4148 34.4082 14.1938C35.2286 12.9728 36.3898 12.02 37.7475 11.454C39.1052 10.8879 40.5994 10.7337 42.0442 11.0103C43.4889 11.287 44.8204 11.9824 45.8729 13.0099C47.2943 14.4548 48.0842 16.4047 48.0692 18.4315C48.0542 20.4583 47.2355 22.3963 45.7929 23.8199Z" fill="url(#paint0_linear_1_1368)"/>
<path d="M23.7029 63.6499C23.7029 63.6499 21.4529 50.5099 34.0429 40.5C41.6329 34.5 63.583 26.8699 63.583 26.8699C63.583 26.8699 63.3029 24.5599 60.4129 25.5599C50.4829 28.9799 39.1429 31.09 33.5129 28.02C27.8829 24.95 28.4229 18.46 32.1129 12.11C36.8529 3.92997 47.8429 0.769969 47.8429 0.769969C47.8429 0.769969 46.9229 -0.52003 43.9729 0.23997C37.0785 2.02848 31.0774 6.27935 27.1029 12.19C17.7029 25.51 17.6529 39.82 18.8329 49.0299C20.2429 60.0099 23.7029 63.6499 23.7029 63.6499Z" fill="url(#paint1_linear_1_1368)"/>
<path d="M31.2329 47.71C28.6305 52.5362 27.2823 57.9387 27.312 63.4217C27.3417 68.9047 28.7484 74.2923 31.4029 79.09C40.5429 95.82 54.2929 100.22 54.2929 100.22C54.2929 100.22 47.0529 90.08 41.8629 80.76C36.3829 70.9 36.5929 62.83 36.5929 62.83C36.5929 62.83 49.5929 70.94 61.8229 64.15C74.0529 57.36 72.6929 43.25 72.6929 43.25C72.6929 43.25 66.1529 59.25 51.6929 58.61C40.1929 58.08 31.2329 47.71 31.2329 47.71Z" fill="url(#paint2_linear_1_1368)"/>
<path d="M15.3528 30.02C15.3528 31.0089 15.0595 31.9756 14.5101 32.7979C13.9607 33.6201 13.1799 34.261 12.2662 34.6394C11.3526 35.0178 10.3472 35.1168 9.37732 34.9239C8.40742 34.731 7.51653 34.2548 6.81726 33.5555C6.118 32.8563 5.64178 31.9654 5.44885 30.9955C5.25593 30.0255 5.35496 29.0202 5.7334 28.1066C6.11184 27.193 6.75271 26.4121 7.57495 25.8627C8.3972 25.3133 9.36388 25.02 10.3528 25.02C11.6789 25.02 12.9506 25.5468 13.8883 26.4845C14.826 27.4221 15.3528 28.6939 15.3528 30.02Z" fill="url(#paint3_linear_1_1368)"/>
<path d="M12.2029 48.25C12.2029 49.4367 11.8509 50.5967 11.1916 51.5834C10.5324 52.5701 9.59531 53.3391 8.49896 53.7933C7.4026 54.2474 6.19617 54.3662 5.03228 54.1347C3.8684 53.9032 2.79932 53.3318 1.9602 52.4926C1.12109 51.6535 0.549684 50.5844 0.318173 49.4206C0.0866615 48.2567 0.205478 47.0503 0.659604 45.9539C1.11373 44.8576 1.88275 43.9205 2.86944 43.2612C3.85614 42.6019 5.01619 42.25 6.20288 42.25C7.79418 42.25 9.32027 42.8821 10.4455 44.0074C11.5707 45.1326 12.2029 46.6587 12.2029 48.25Z" fill="url(#paint4_linear_1_1368)"/>
<path d="M16.7329 68.5C16.7329 69.5443 16.4232 70.5651 15.843 71.4334C15.2629 72.3017 14.4383 72.9784 13.4735 73.3781C12.5087 73.7777 11.447 73.8823 10.4228 73.6785C9.39858 73.4748 8.45779 72.9719 7.71937 72.2335C6.98095 71.4951 6.47803 70.5543 6.2743 69.5301C6.07057 68.5058 6.17515 67.4442 6.57478 66.4794C6.97441 65.5146 7.65119 64.69 8.51948 64.1098C9.38777 63.5296 10.4086 63.22 11.4529 63.22C12.1466 63.2187 12.8338 63.3543 13.475 63.6192C14.1162 63.8841 14.6988 64.273 15.1893 64.7635C15.6799 65.2541 16.0688 65.8367 16.3336 66.4779C16.5985 67.119 16.7342 67.8062 16.7329 68.5Z" fill="url(#paint5_linear_1_1368)"/>
</g>
<defs>
<linearGradient id="paint0_linear_1_1368" x1="40.6015" y1="10.8765" x2="40.6015" y2="25.8765" gradientUnits="userSpaceOnUse">
<stop stop-color="#1E3A3A"/>
<stop offset="1" stop-color="#53A0A0"/>
</linearGradient>
<linearGradient id="paint1_linear_1_1368" x1="40.9438" y1="0.000244141" x2="40.9438" y2="63.6499" gradientUnits="userSpaceOnUse">
<stop stop-color="#1E3A3A"/>
<stop offset="1" stop-color="#53A0A0"/>
</linearGradient>
<linearGradient id="paint2_linear_1_1368" x1="50.0247" y1="43.25" x2="50.0247" y2="100.22" gradientUnits="userSpaceOnUse">
<stop stop-color="#1E3A3A"/>
<stop offset="1" stop-color="#53A0A0"/>
</linearGradient>
<linearGradient id="paint3_linear_1_1368" x1="10.3528" y1="25.02" x2="10.3528" y2="35.02" gradientUnits="userSpaceOnUse">
<stop stop-color="#1E3A3A"/>
<stop offset="1" stop-color="#2F5859"/>
</linearGradient>
<linearGradient id="paint4_linear_1_1368" x1="6.20288" y1="42.25" x2="6.20288" y2="54.25" gradientUnits="userSpaceOnUse">
<stop stop-color="#1E3A3A"/>
<stop offset="1" stop-color="#2F5859"/>
</linearGradient>
<linearGradient id="paint5_linear_1_1368" x1="11.4529" y1="63.22" x2="11.4529" y2="73.78" gradientUnits="userSpaceOnUse">
<stop stop-color="#1E3A3A"/>
<stop offset="1" stop-color="#2F5859"/>
</linearGradient>
<clipPath id="clip0_1_1368">
<rect width="72.6" height="100.21" fill="white" transform="translate(0.132812)"/>
</clipPath>
</defs>
</svg>
