<svg width="34" height="26" viewBox="0 0 34 26" fill="none" xmlns="http://www.w3.org/2000/svg">
<path fill-rule="evenodd" clip-rule="evenodd" d="M12.5939 3.23053C12.4115 3.27709 12.044 3.22231 11.8357 3.25107C14.6868 3.27093 19.3601 3.50374 22.1642 3.25107L21.4411 3.24491C21.15 2.62865 20.7095 0.579924 20.4746 0.275903L20.3806 0.15539C20.1863 -0.0500298 19.7423 0.0115957 19.419 0.0115957C17.9756 0.0115957 16.4648 0.0259751 15.0305 0.0115957C14.6721 0.00543311 14.2926 0.0259751 13.937 0.0115957C13.4404 0.0232362 13.4376 0.577185 13.3282 0.775758C13.2525 0.912705 13.3465 0.769596 13.2581 0.996242C13.1613 1.24617 13.1227 1.53307 13.0287 1.8008C13.0059 1.85736 12.9883 1.91579 12.9761 1.97541C12.9586 2.03293 12.5939 3.23053 12.5939 3.23327V3.23053Z" fill="#1E3A3A"/>
<path fill-rule="evenodd" clip-rule="evenodd" d="M12.979 1.97021H13.1817V2.3927H12.8499L12.9762 1.97295L12.979 1.97021ZM21.2784 2.80627C21.2342 2.6796 21.1928 2.53649 21.1486 2.38653H20.9873V2.80627H21.2784ZM12.7482 2.71726L12.7216 2.80627H12.7482V2.71726ZM20.1204 2.38653H20.5524V2.80627H20.1204V2.38653ZM19.2528 2.38653H19.6848V2.80627H19.2528V2.38653ZM18.3859 2.38653H18.8179V2.80627H18.3859V2.38653ZM17.519 2.38653H17.951V2.80627H17.519V2.38653ZM16.6514 2.38653H17.0834V2.80627H16.6514V2.38653ZM15.7845 2.38653H16.2165V2.80627H15.7845V2.38653ZM14.9176 2.38653H15.3496V2.80627H14.9176V2.38653ZM14.0507 2.38653H14.4827V2.80627H14.0542L14.0507 2.38653ZM13.1859 2.38653H13.6151V2.80627H13.1859V2.38653ZM20.5503 1.97021H20.9824V2.3927H20.5503V1.97021ZM19.6827 1.97021H20.1148V2.3927H19.6862L19.6827 1.97021ZM18.8158 1.97021H19.2479V2.3927H18.8158V1.97021ZM17.9489 1.97021H18.381V2.3927H17.9489V1.97021ZM17.0813 1.97021H17.5141V2.3927H17.0813V1.97021ZM16.2144 1.97021H16.6493V2.3927H16.2172L16.2144 1.97021ZM15.3475 1.97021H15.7796V2.3927H15.3475V1.97021ZM14.4806 1.97021H14.9127V2.3927H14.4806V1.97021ZM13.6158 1.97021H14.0451V2.3927H13.6193L13.6158 1.97021Z" fill="black"/>
<path d="M15.7508 1.62297H15.5334V0.795814H15.2528V0.617783H16.0285V0.795814H15.748L15.7508 1.62297ZM16.8793 1.62297L16.8092 1.38195H16.4325L16.3589 1.62297H16.1239L16.4851 0.612305H16.7531L17.1171 1.62297H16.8793ZM16.7531 1.20323C16.6829 0.988223 16.6443 0.864971 16.6352 0.836213C16.6261 0.807454 16.6205 0.784173 16.6177 0.767739C16.603 0.825257 16.5588 0.973159 16.4858 1.20118L16.7531 1.20323ZM18.2372 1.62297H17.9875L17.7497 1.24089L17.5112 1.62297H17.2763L17.6172 1.10326L17.3001 0.617783H17.5379L17.7609 0.979322L17.9791 0.617783H18.2112L17.8907 1.11421L18.2372 1.62297ZM18.5282 1.62297V0.617783H18.7457V1.62297H18.5282Z" fill="white"/>
<path fill-rule="evenodd" clip-rule="evenodd" d="M3.22873 7.65027C2.59502 7.60645 1.62399 7.87711 1.32562 8.30696C0.0608428 10.1069 3.26702 9.85364 4.17204 9.89617C3.58519 10.3795 1.35863 12.6609 1.22264 13.2041C1.07346 13.8099 1.07346 18.6368 1.0596 19.6744C1.03781 21.1747 0.68069 24.7127 2.0227 25.1935C2.40953 25.3314 4.55358 25.3456 5.0183 25.245C6.12466 25.0072 5.88701 24.0206 5.93718 22.8502C9.83186 22.5854 24.1814 22.5854 28.0576 22.8502C28.1045 23.9394 27.8834 24.9183 28.8498 25.2154C29.3171 25.3584 31.5562 25.3443 31.9728 25.1935C33.6356 24.5993 32.7722 18.6845 32.8085 16.6693C32.8659 13.1448 32.753 12.1505 29.8261 9.89617C30.7832 9.84977 33.66 10.1907 32.7418 8.41394C32.4652 7.88163 30.706 7.2114 30.0558 7.94929C28.7389 9.45473 28.8801 7.83845 27.6794 6.14483C26.2793 3.40979 25.9281 3.45555 21.5403 3.49873C20.096 3.43428 18.5328 3.38273 17.0865 3.3795C15.5867 3.37435 9.8048 3.55028 8.55718 3.83384C7.33729 3.85833 5.73585 6.93944 5.16815 8.03114C4.2803 9.73957 4.44202 7.73405 3.23203 7.64769L3.22873 7.65027ZM5.15693 9.60424C8.85357 9.66868 13.0493 9.16343 16.9116 9.16086C20.9119 9.1557 24.9095 9.57459 28.8379 9.60424L26.7156 5.58803C26.3255 4.96614 26.3195 4.72576 25.4766 4.59042C22.3866 4.09549 11.8782 4.16315 8.67864 4.57174C7.50826 4.72318 7.51684 5.17172 6.6006 6.76286C6.04742 7.72245 5.55828 8.61759 5.15693 9.60424ZM10.9607 17.7636C10.9631 18.2736 11.1718 18.7619 11.5414 19.1224C11.9109 19.4828 12.4114 19.6861 12.9337 19.6879H21.0697C21.5918 19.6866 22.0922 19.4833 22.4612 19.1227C22.8302 18.762 23.0379 18.2734 23.0388 17.7636V16.4367C23.0363 15.9274 22.8282 15.4396 22.4595 15.0793C22.0908 14.719 21.5913 14.5152 21.0697 14.5124H12.9337C12.4114 14.5142 11.9109 14.7175 11.5414 15.0779C11.1718 15.4383 10.9631 15.9267 10.9607 16.4367V17.7636ZM8.45222 17.7694C8.90308 17.5613 9.36252 17.0528 9.53151 16.6313C8.31426 15.9314 3.79907 15.6202 2.41349 15.8883C1.78836 19.4746 7.18018 18.361 8.45222 17.7694ZM24.4673 16.6313C24.6336 17.0528 25.0924 17.5613 25.5432 17.7694C26.8166 18.361 32.2104 19.4746 31.5826 15.8883C30.1964 15.6202 25.6819 15.9314 24.4673 16.6313Z" fill="#1E3A3A"/>
</svg>
