<svg width="26" height="32" viewBox="0 0 26 32" fill="none" xmlns="http://www.w3.org/2000/svg">
<g clip-path="url(#clip0_1_1722)">
<path d="M8.02587 22.4839C7.69021 22.4832 7.36186 22.5821 7.08243 22.7681C6.80299 22.954 6.58502 23.2187 6.45608 23.5286C6.32713 23.8385 6.29304 24.1797 6.35809 24.509C6.42315 24.8383 6.58442 25.1409 6.82152 25.3785C7.05862 25.6161 7.36089 25.778 7.69005 25.8438C8.01921 25.9095 8.36047 25.8761 8.67065 25.7479C8.98083 25.6196 9.24598 25.4021 9.43254 25.1231C9.6191 24.8441 9.71867 24.5159 9.71867 24.1803C9.71914 23.9577 9.67571 23.7372 9.59084 23.5314C9.50598 23.3256 9.38136 23.1385 9.22412 22.981C9.06688 22.8234 8.88011 22.6984 8.67449 22.6131C8.46888 22.5278 8.24847 22.4839 8.02587 22.4839Z" fill="#1E3A3A"/>
<path d="M8.28548 31.062L7.7627 31.9902H18.3073L17.7845 31.062H8.28548Z" fill="url(#paint0_linear_1_1722)"/>
<path d="M18.0406 22.4839C17.7051 22.4839 17.3771 22.5834 17.0982 22.7698C16.8192 22.9562 16.6018 23.2211 16.4734 23.5311C16.345 23.8411 16.3114 24.1821 16.3768 24.5112C16.4423 24.8403 16.6038 25.1425 16.8411 25.3798C17.0783 25.617 17.3806 25.7786 17.7097 25.844C18.0387 25.9095 18.3798 25.8759 18.6898 25.7475C18.9998 25.6191 19.2647 25.4017 19.4511 25.1227C19.6375 24.8438 19.737 24.5158 19.737 24.1803C19.737 23.7304 19.5583 23.2989 19.2401 22.9807C18.922 22.6626 18.4905 22.4839 18.0406 22.4839Z" fill="url(#paint1_linear_1_1722)"/>
<path d="M23.5103 -0.0204642H2.55982C2.25252 -0.0204642 1.94824 0.0400626 1.66433 0.157662C1.38042 0.275262 1.12245 0.44763 0.905159 0.664926C0.687862 0.882222 0.515484 1.14019 0.397884 1.4241C0.280285 1.70801 0.219763 2.01231 0.219763 2.31961V29.6395C0.216441 30.2334 0.4391 30.8064 0.842601 31.2423C1.2461 31.6781 1.80024 31.9442 2.39269 31.9866L6.34022 28.5263H9.72943L8.86524 30.0662H17.2297L16.362 28.5263H19.7548L23.7023 31.9866C24.2891 31.941 24.8372 31.6759 25.2373 31.2442C25.6374 30.8125 25.8601 30.2458 25.861 29.6572V2.33028C25.8629 2.02105 25.8034 1.71452 25.6859 1.42846C25.5685 1.1424 25.3954 0.882504 25.1767 0.66384C24.958 0.445176 24.6982 0.272096 24.4121 0.154629C24.126 0.0371618 23.8195 -0.0223527 23.5103 -0.0204642ZM7.57428 7.90307L9.31334 7.0211C9.43484 6.96046 9.56874 6.9288 9.70453 6.92863H16.3656C16.5014 6.92841 16.6354 6.96009 16.7568 7.0211L18.4994 7.90307C18.5605 7.93628 18.6062 7.99204 18.6268 8.05847C18.6474 8.12491 18.6412 8.19676 18.6096 8.25871L18.3607 8.69258C18.3306 8.74737 18.2802 8.78815 18.2203 8.80611C18.1604 8.82407 18.0959 8.81778 18.0406 8.78861L16.5718 8.04533H9.50538L8.04016 8.78861C7.98488 8.81778 7.92035 8.82407 7.86048 8.80611C7.80061 8.78815 7.75018 8.74737 7.72008 8.69258L7.47116 8.25871C7.44215 8.19872 7.43664 8.13004 7.45572 8.0662C7.47481 8.00235 7.51711 7.94797 7.57428 7.91374V7.90307ZM21.597 26.1863C21.597 26.6201 21.4246 27.0362 21.1178 27.343C20.811 27.6498 20.3949 27.8222 19.961 27.8222H6.09129C5.65742 27.8222 5.24132 27.6498 4.93453 27.343C4.62773 27.0362 4.45536 26.6201 4.45536 26.1863V11.1749C4.45536 10.741 4.62773 10.3249 4.93453 10.0181C5.24132 9.71135 5.65742 9.539 6.09129 9.539H11.1199V9.47854C11.1199 9.43884 11.1278 9.39953 11.143 9.36285C11.1581 9.32618 11.1804 9.29286 11.2085 9.26479C11.2366 9.23672 11.2699 9.21445 11.3066 9.19925C11.3432 9.18406 11.3826 9.17625 11.4223 9.17625H11.9308V8.55389H12.6421V9.17625H13.3533V8.55389H14.0646V9.17625H14.5732C14.6127 9.17624 14.6518 9.18409 14.6883 9.19932C14.7248 9.21455 14.7579 9.23688 14.7857 9.265C14.8135 9.29312 14.8354 9.32647 14.8502 9.36312C14.865 9.39978 14.8724 9.43901 14.8719 9.47854V9.539H19.9041C20.338 9.539 20.7541 9.71135 21.0609 10.0181C21.3677 10.3249 21.5401 10.741 21.5401 11.1749L21.597 26.1863Z" fill="url(#paint2_linear_1_1722)"/>
<path d="M18.9546 11.2705H7.1191C6.68306 11.2705 6.32959 11.624 6.32959 12.06V17.8924C6.32959 18.3285 6.68306 18.6819 7.1191 18.6819H18.9546C19.3906 18.6819 19.7441 18.3285 19.7441 17.8924V12.06C19.7441 11.624 19.3906 11.2705 18.9546 11.2705Z" fill="#1E3A3A"/>
</g>
<defs>
<linearGradient id="paint0_linear_1_1722" x1="13.0368" y1="0.21426" x2="13.0368" y2="32.2143" gradientUnits="userSpaceOnUse">
<stop offset="1" stop-color="#1E3A3A"/>
</linearGradient>
<linearGradient id="paint1_linear_1_1722" x1="18.0477" y1="0.214042" x2="18.0477" y2="32.2141" gradientUnits="userSpaceOnUse">
<stop offset="1" stop-color="#1E3A3A"/>
</linearGradient>
<linearGradient id="paint2_linear_1_1722" x1="13.0368" y1="0.214255" x2="13.0368" y2="32.2036" gradientUnits="userSpaceOnUse">
<stop offset="1" stop-color="#1E3A3A"/>
</linearGradient>
<clipPath id="clip0_1_1722">
<rect width="25.6306" height="32" fill="white" transform="translate(0.219727 -0.00976562)"/>
</clipPath>
</defs>
</svg>
